<svg width="28" height="28" viewBox="0 0 28 28" fill="none" xmlns="http://www.w3.org/2000/svg">
<path d="M25.9941 11.1191L15.4941 21.6191C15.4128 21.7004 15.3163 21.765 15.2101 21.809C15.1039 21.853 14.99 21.8757 14.875 21.8757C14.76 21.8757 14.6462 21.853 14.5399 21.809C14.4337 21.765 14.3372 21.7004 14.2559 21.6191L3.5 10.862V16.625C3.5 16.8571 3.40781 17.0796 3.24372 17.2437C3.07962 17.4078 2.85706 17.5 2.625 17.5C2.39294 17.5 2.17038 17.4078 2.00628 17.2437C1.84219 17.0796 1.75 16.8571 1.75 16.625V8.75C1.75 8.51794 1.84219 8.29538 2.00628 8.13128C2.17038 7.96719 2.39294 7.875 2.625 7.875H10.5C10.7321 7.875 10.9546 7.96719 11.1187 8.13128C11.2828 8.29538 11.375 8.51794 11.375 8.75C11.375 8.98206 11.2828 9.20462 11.1187 9.36872C10.9546 9.53281 10.7321 9.625 10.5 9.625H4.73703L14.875 19.763L24.7559 9.88094C24.8372 9.79964 24.9337 9.73515 25.04 9.69116C25.1462 9.64716 25.26 9.62451 25.375 9.62451C25.49 9.62451 25.6038 9.64716 25.71 9.69116C25.8163 9.73515 25.9128 9.79964 25.9941 9.88094C26.0754 9.96223 26.1398 10.0587 26.1838 10.165C26.2278 10.2712 26.2505 10.385 26.2505 10.5C26.2505 10.615 26.2278 10.7288 26.1838 10.835C26.1398 10.9413 26.0754 11.0378 25.9941 11.1191Z" fill="#4B5563"/>
</svg>
