<svg width="10" height="10" viewBox="0 0 10 10" fill="none" xmlns="http://www.w3.org/2000/svg">
<path d="M3.58263 1.99838L3.58263 6.41779C3.58261 6.45886 3.59068 6.49953 3.60638 6.53748C3.62209 6.57542 3.64512 6.6099 3.67416 6.63894C3.7032 6.66798 3.73768 6.69101 3.77562 6.70671C3.81357 6.72242 3.85424 6.73049 3.8953 6.73047L8.31472 6.73047C8.37656 6.7305 8.43702 6.71219 8.48845 6.67784C8.53988 6.64349 8.57996 6.59466 8.60362 6.53752C8.62728 6.48039 8.63345 6.41751 8.62136 6.35686C8.60927 6.29622 8.57945 6.24052 8.53569 6.19682L4.11627 1.77741C4.07258 1.73364 4.01688 1.70383 3.95623 1.69174C3.89558 1.67964 3.83271 1.68582 3.77557 1.70948C3.71844 1.73314 3.6696 1.77322 3.63526 1.82465C3.60091 1.87607 3.58259 1.93654 3.58263 1.99838Z" fill="#007CC4"/>
</svg>
