<svg width="72" height="72" viewBox="0 0 72 72" fill="none" xmlns="http://www.w3.org/2000/svg">
<path opacity="0.2" d="M63 36C63 41.3401 61.4165 46.5603 58.4497 51.0004C55.4829 55.4405 51.2661 58.9012 46.3325 60.9447C41.3989 62.9883 35.9701 63.523 30.7326 62.4812C25.4951 61.4394 20.6841 58.8679 16.9081 55.0919C13.1321 51.3159 10.5606 46.5049 9.51881 41.2674C8.47701 36.03 9.0117 30.6012 11.0553 25.6675C13.0988 20.7339 16.5595 16.5171 20.9996 13.5503C25.4397 10.5835 30.6599 9 36 9C43.1609 9 50.0284 11.8446 55.0919 16.9081C60.1554 21.9716 63 28.8392 63 36Z" fill="url(#paint0_linear_8146_6954)"/>
<path d="M48.8419 27.6581C49.0511 27.8671 49.217 28.1152 49.3303 28.3884C49.4435 28.6615 49.5018 28.9543 49.5018 29.25C49.5018 29.5457 49.4435 29.8385 49.3303 30.1116C49.217 30.3848 49.0511 30.6329 48.8419 30.8419L33.0919 46.5919C32.8829 46.8011 32.6348 46.967 32.3616 47.0803C32.0885 47.1935 31.7957 47.2518 31.5 47.2518C31.2043 47.2518 30.9115 47.1935 30.6384 47.0803C30.3653 46.967 30.1171 46.8011 29.9081 46.5919L23.1581 39.8419C22.7359 39.4197 22.4988 38.8471 22.4988 38.25C22.4988 37.6529 22.7359 37.0803 23.1581 36.6581C23.5803 36.2359 24.1529 35.9987 24.75 35.9987C25.3471 35.9987 25.9197 36.2359 26.3419 36.6581L31.5 41.8191L45.6581 27.6581C45.8671 27.4489 46.1153 27.283 46.3884 27.1697C46.6615 27.0565 46.9543 26.9982 47.25 26.9982C47.5457 26.9982 47.8385 27.0565 48.1116 27.1697C48.3848 27.283 48.6329 27.4489 48.8419 27.6581ZM65.25 36C65.25 41.7851 63.5345 47.4403 60.3205 52.2504C57.1065 57.0606 52.5382 60.8096 47.1935 63.0235C41.8488 65.2373 35.9676 65.8166 30.2936 64.688C24.6197 63.5593 19.4078 60.7736 15.3171 56.6829C11.2265 52.5922 8.44066 47.3803 7.31204 41.7064C6.18343 36.0324 6.76267 30.1512 8.97654 24.8065C11.1904 19.4618 14.9394 14.8935 19.7496 11.6795C24.5597 8.46548 30.2149 6.75 36 6.75C43.7551 6.75819 51.1902 9.84251 56.6738 15.3262C62.1575 20.8098 65.2418 28.2449 65.25 36ZM60.75 36C60.75 31.1049 59.2985 26.3198 56.5789 22.2496C53.8593 18.1795 49.9939 15.0073 45.4714 13.134C40.949 11.2607 35.9726 10.7706 31.1715 11.7256C26.3705 12.6805 21.9605 15.0378 18.4991 18.4991C15.0378 21.9605 12.6806 26.3705 11.7256 31.1715C10.7706 35.9725 11.2607 40.9489 13.134 45.4714C15.0073 49.9939 18.1795 53.8593 22.2496 56.5789C26.3198 59.2984 31.1049 60.75 36 60.75C42.5618 60.7426 48.8528 58.1326 53.4927 53.4927C58.1326 48.8528 60.7426 42.5618 60.75 36Z" fill="url(#paint1_linear_8146_6954)"/>
<defs>
<linearGradient id="paint0_linear_8146_6954" x1="36" y1="9" x2="36" y2="63" gradientUnits="userSpaceOnUse">
<stop stop-color="#007CC4"/>
<stop offset="1" stop-color="#07296C"/>
</linearGradient>
<linearGradient id="paint1_linear_8146_6954" x1="36" y1="6.75" x2="36" y2="65.25" gradientUnits="userSpaceOnUse">
<stop stop-color="#07486E"/>
<stop offset="0.454976" stop-color="#B5D1E8"/>
<stop offset="1" stop-color="#07296C"/>
</linearGradient>
</defs>
</svg>
