<svg width="72" height="72" viewBox="0 0 72 72" fill="none" xmlns="http://www.w3.org/2000/svg">
<path opacity="0.2" d="M63 36C63.0055 39.9687 62.1325 43.8893 60.4434 47.4806C60.0717 46.2959 59.3804 45.2367 58.4456 44.4195C57.5108 43.6024 56.3687 43.0588 55.1449 42.8488C53.9212 42.6388 52.6632 42.7703 51.5094 43.2291C50.3556 43.6878 49.3506 44.4558 48.6051 45.4488C47.8596 46.4417 47.4025 47.621 47.2839 48.857C47.1653 50.093 47.39 51.3377 47.9331 52.4542C48.4763 53.5708 49.3169 54.5159 50.3624 55.1856C51.408 55.8553 52.618 56.2236 53.8594 56.25C52.1801 56.264 50.5358 56.7314 49.1001 57.6027C47.6645 58.474 46.4908 59.7168 45.7031 61.2C40.3248 63.2712 34.4249 63.5671 28.8664 62.0444C23.3079 60.5216 18.3824 57.2602 14.8106 52.7372C11.2387 48.2142 9.20787 42.6669 9.01511 36.9068C8.82235 31.1467 10.4778 25.4761 13.7393 20.7244C17.0008 15.9727 21.6971 12.3893 27.1414 10.4984C32.5857 8.60746 38.4922 8.50825 43.997 10.2152C49.5017 11.9222 54.3158 15.3459 57.735 19.9854C61.1542 24.6248 62.9992 30.2367 63 36Z" fill="url(#paint0_linear_8146_6994)"/>
<path d="M38.25 20.25V32.3578L48.4931 27.2363C49.0268 26.9692 49.6448 26.9251 50.211 27.1137C50.7772 27.3023 51.2453 27.708 51.5124 28.2417C51.7794 28.7754 51.8235 29.3934 51.6349 29.9596C51.4464 30.5258 51.0406 30.9939 50.5069 31.261L37.0069 38.0109C36.6639 38.1826 36.2828 38.2637 35.8997 38.2466C35.5166 38.2295 35.1442 38.1148 34.8179 37.9133C34.4916 37.7118 34.2222 37.4303 34.0353 37.0954C33.8484 36.7606 33.7502 36.3835 33.75 36V20.25C33.75 19.6533 33.9871 19.081 34.409 18.659C34.831 18.2371 35.4033 18 36 18C36.5967 18 37.169 18.2371 37.591 18.659C38.013 19.081 38.25 19.6533 38.25 20.25ZM36 60.75C31.1049 60.75 26.3198 59.2985 22.2496 56.5789C18.1795 53.8593 15.0073 49.9939 13.134 45.4714C11.2607 40.949 10.7706 35.9726 11.7256 31.1715C12.6806 26.3705 15.0378 21.9605 18.4991 18.4991C21.9605 15.0378 26.3705 12.6806 31.1715 11.7256C35.9726 10.7706 40.949 11.2607 45.4714 13.134C49.9939 15.0073 53.8593 18.1795 56.5789 22.2496C59.2984 26.3198 60.75 31.1049 60.75 36C60.75 36.5968 60.9871 37.169 61.409 37.591C61.831 38.013 62.4033 38.25 63 38.25C63.5967 38.25 64.169 38.013 64.591 37.591C65.013 37.169 65.25 36.5968 65.25 36C65.25 30.2149 63.5345 24.5597 60.3205 19.7496C57.1065 14.9394 52.5382 11.1904 47.1935 8.97654C41.8488 6.76267 35.9676 6.18343 30.2936 7.31204C24.6197 8.44066 19.4078 11.2265 15.3171 15.3171C11.2265 19.4078 8.44066 24.6197 7.31204 30.2936C6.18343 35.9676 6.76267 41.8488 8.97654 47.1935C11.1904 52.5382 14.9394 57.1065 19.7496 60.3205C24.5597 63.5345 30.2149 65.25 36 65.25C36.5967 65.25 37.169 65.013 37.591 64.591C38.013 64.169 38.25 63.5967 38.25 63C38.25 62.4033 38.013 61.831 37.591 61.409C37.169 60.9871 36.5967 60.75 36 60.75ZM65.1741 62.4206C65.2565 62.7082 65.2808 63.0093 65.2455 63.3064C65.2102 63.6034 65.116 63.8905 64.9684 64.1507C64.8209 64.4109 64.6229 64.6391 64.3861 64.8219C64.1493 65.0047 63.8784 65.1384 63.5893 65.2153C63.3002 65.2921 62.9987 65.3105 62.7023 65.2695C62.406 65.2284 62.1209 65.1287 61.8636 64.9761C61.6063 64.8235 61.382 64.6211 61.2038 64.3808C61.0256 64.1405 60.8972 63.8671 60.8259 63.5766C60.03 60.5869 57.2231 58.5 54 58.5C50.7769 58.5 47.97 60.5869 47.1741 63.5766C47.0469 64.0562 46.7648 64.4803 46.3716 64.783C45.9784 65.0856 45.4962 65.2498 45 65.25C44.8044 65.2495 44.6097 65.224 44.4206 65.1741C43.844 65.0204 43.3521 64.644 43.0531 64.1276C42.754 63.6112 42.6723 62.9972 42.8259 62.4206C43.5558 59.7107 45.2721 57.3714 47.6381 55.8619C46.3785 54.6036 45.5203 53 45.1723 51.2539C44.8242 49.5078 45.0018 47.6977 45.6827 46.0526C46.3636 44.4075 47.5172 43.0013 48.9974 42.0119C50.4777 41.0225 52.2181 40.4944 53.9986 40.4944C55.7791 40.4944 57.5195 41.0225 58.9998 42.0119C60.48 43.0013 61.6336 44.4075 62.3145 46.0526C62.9954 47.6977 63.173 49.5078 62.8249 51.2539C62.4769 53 61.6187 54.6036 60.3591 55.8619C62.7261 57.3708 64.4436 59.7102 65.1741 62.4206ZM49.5 49.5C49.5 50.39 49.7639 51.2601 50.2584 52.0001C50.7529 52.7401 51.4557 53.3169 52.2779 53.6575C53.1002 53.9981 54.005 54.0872 54.8779 53.9135C55.7508 53.7399 56.5527 53.3113 57.182 52.682C57.8113 52.0527 58.2399 51.2508 58.4135 50.3779C58.5872 49.505 58.4981 48.6002 58.1575 47.7779C57.8169 46.9557 57.2401 46.2529 56.5001 45.7584C55.7601 45.2639 54.89 45 54 45C52.8065 45 51.6619 45.4741 50.818 46.318C49.9741 47.1619 49.5 48.3065 49.5 49.5Z" fill="url(#paint1_linear_8146_6994)"/>
<defs>
<linearGradient id="paint0_linear_8146_6994" x1="36" y1="9.00378" x2="36" y2="63.0038" gradientUnits="userSpaceOnUse">
<stop stop-color="#007CC4"/>
<stop offset="1" stop-color="#07296C"/>
</linearGradient>
<linearGradient id="paint1_linear_8146_6994" x1="36.0056" y1="6.75" x2="36.0056" y2="65.2908" gradientUnits="userSpaceOnUse">
<stop stop-color="#07486E"/>
<stop offset="0.454976" stop-color="#B5D1E8"/>
<stop offset="1" stop-color="#07296C"/>
</linearGradient>
</defs>
</svg>
