<svg width="24" height="24" viewBox="0 0 24 24" fill="none" xmlns="http://www.w3.org/2000/svg">
<path d="M21.5805 8.58281C16.3876 3.38906 7.61171 3.38906 2.41984 8.58281C0.615149 10.3894 0.440774 13.0519 1.99609 15.0572C2.17018 15.2787 2.41093 15.4383 2.68275 15.5124C2.95457 15.5866 3.24302 15.5712 3.50546 15.4688L8.09921 13.8394L8.11984 13.8309C8.32285 13.7504 8.50243 13.6203 8.64214 13.4524C8.78184 13.2845 8.87721 13.0843 8.91952 12.87L9.47265 10.1025C9.47803 10.0717 9.49131 10.0428 9.51119 10.0186C9.53107 9.99448 9.55688 9.97589 9.58609 9.96469C11.1394 9.42555 12.8286 9.42192 14.3842 9.95438C14.4134 9.96528 14.4392 9.98353 14.4592 10.0073C14.4793 10.0312 14.4928 10.0597 14.4986 10.0903L15.0808 12.8794C15.1249 13.0912 15.2208 13.2889 15.3598 13.4548C15.4989 13.6206 15.6767 13.7495 15.8776 13.83L15.8992 13.8375L20.493 15.4688C20.7557 15.5709 21.0443 15.5858 21.3162 15.5112C21.588 15.4365 21.8286 15.2764 22.0023 15.0544C23.5595 13.0519 23.3851 10.3894 21.5805 8.58281ZM21.1117 14.3681C21.0863 14.3988 21.0519 14.4206 21.0133 14.4304C20.9747 14.4402 20.9339 14.4374 20.897 14.4225L20.8764 14.4141L16.2826 12.7847C16.2572 12.7723 16.2348 12.7543 16.2173 12.7321C16.1997 12.7098 16.1875 12.6839 16.1814 12.6562L15.5983 9.86812C15.5522 9.64697 15.4498 9.44145 15.301 9.27146C15.1522 9.10148 14.962 8.97277 14.7489 8.89781C12.9555 8.2841 11.0083 8.28839 9.21765 8.91C9.00441 8.98658 8.81463 9.11706 8.66677 9.28874C8.51891 9.46042 8.41802 9.66745 8.3739 9.88969L7.81609 12.6562C7.81026 12.6857 7.79742 12.7134 7.77866 12.7369C7.75989 12.7604 7.73575 12.779 7.70827 12.7913L3.12015 14.4141L3.09952 14.4225C3.0626 14.4374 3.02189 14.4402 2.98329 14.4304C2.9447 14.4206 2.91021 14.3988 2.88484 14.3681C1.66609 12.7987 1.80109 10.7944 3.21577 9.37875C5.59609 6.9975 8.79859 5.80687 12.0001 5.80687C15.2017 5.80687 18.4042 6.9975 20.7845 9.37875C22.1992 10.7944 22.3323 12.7987 21.1155 14.3681H21.1117ZM20.8126 18.75C20.8126 18.8992 20.7534 19.0423 20.6479 19.1477C20.5424 19.2532 20.3993 19.3125 20.2501 19.3125H3.75015C3.60096 19.3125 3.45789 19.2532 3.3524 19.1477C3.24691 19.0423 3.18765 18.8992 3.18765 18.75C3.18765 18.6008 3.24691 18.4577 3.3524 18.3523C3.45789 18.2468 3.60096 18.1875 3.75015 18.1875H20.2501C20.3993 18.1875 20.5424 18.2468 20.6479 18.3523C20.7534 18.4577 20.8126 18.6008 20.8126 18.75Z" fill="white"/>
</svg>
