<svg width="24" height="24" viewBox="0 0 24 24" fill="none" xmlns="http://www.w3.org/2000/svg">
<path d="M10.6875 7.5C10.6875 7.24041 10.7645 6.98665 10.9087 6.77081C11.0529 6.55497 11.2579 6.38675 11.4977 6.28741C11.7376 6.18807 12.0015 6.16208 12.2561 6.21272C12.5107 6.26336 12.7445 6.38837 12.9281 6.57192C13.1116 6.75548 13.2366 6.98934 13.2873 7.24394C13.3379 7.49854 13.3119 7.76244 13.2126 8.00227C13.1133 8.2421 12.945 8.44708 12.7292 8.5913C12.5133 8.73552 12.2596 8.8125 12 8.8125C11.6519 8.8125 11.3181 8.67422 11.0719 8.42808C10.8258 8.18194 10.6875 7.8481 10.6875 7.5ZM6.1875 7.5C6.1875 5.95843 6.79989 4.48 7.88994 3.38994C8.98 2.29989 10.4584 1.6875 12 1.6875C13.5416 1.6875 15.02 2.29989 16.1101 3.38994C17.2001 4.48 17.8125 5.95843 17.8125 7.5C17.8125 13.0134 12.5053 16.1091 12.2812 16.2384C12.1957 16.2878 12.0987 16.3138 12 16.3138C11.9013 16.3138 11.8043 16.2878 11.7188 16.2384C11.4947 16.1091 6.1875 13.0134 6.1875 7.5ZM7.3125 7.5C7.3125 11.6737 10.9509 14.3897 12 15.0853C13.0481 14.3897 16.6875 11.6747 16.6875 7.5C16.6875 6.2568 16.1936 5.06451 15.3146 4.18544C14.4355 3.30636 13.2432 2.8125 12 2.8125C10.7568 2.8125 9.56451 3.30636 8.68544 4.18544C7.80636 5.06451 7.3125 6.2568 7.3125 7.5ZM18.945 14.0166C18.8752 13.9883 18.8004 13.9744 18.7251 13.9756C18.6498 13.9768 18.5756 13.9931 18.5067 14.0235C18.4378 14.0539 18.3757 14.0979 18.3242 14.1528C18.2726 14.2076 18.2326 14.2723 18.2064 14.3429C18.1803 14.4135 18.1687 14.4887 18.1721 14.5639C18.1756 14.6391 18.1941 14.7129 18.2266 14.7808C18.2591 14.8487 18.305 14.9094 18.3614 14.9593C18.4178 15.0092 18.4836 15.0473 18.555 15.0712C20.2031 15.6797 21.1875 16.4944 21.1875 17.25C21.1875 18.7575 17.4141 20.4375 12 20.4375C6.58594 20.4375 2.8125 18.7575 2.8125 17.25C2.8125 16.4944 3.79688 15.6797 5.445 15.0712C5.51639 15.0473 5.58223 15.0092 5.63864 14.9593C5.69504 14.9094 5.74085 14.8487 5.77336 14.7808C5.80586 14.7129 5.8244 14.6391 5.82787 14.5639C5.83134 14.4887 5.81967 14.4135 5.79355 14.3429C5.76744 14.2723 5.72741 14.2076 5.67583 14.1528C5.62426 14.0979 5.56219 14.0539 5.49332 14.0235C5.42444 13.9931 5.35015 13.9768 5.27486 13.9756C5.19957 13.9744 5.1248 13.9883 5.055 14.0166C2.88375 14.8181 1.6875 15.9666 1.6875 17.25C1.6875 18.5006 2.82938 19.6294 4.90406 20.4263C6.80813 21.1594 9.32812 21.5625 12 21.5625C14.6719 21.5625 17.1919 21.1594 19.0959 20.4263C21.1706 19.6294 22.3125 18.5006 22.3125 17.25C22.3125 15.9666 21.1163 14.8181 18.945 14.0166Z" fill="white"/>
</svg>
