<svg width="301" height="75" viewBox="0 0 301 75" fill="none" xmlns="http://www.w3.org/2000/svg">
<path d="M300.599 -42L214.158 -25.7655C199.836 -23.0758 187.238 -14.6456 179.289 -2.43283V-2.43283C163.768 21.4136 132.265 28.8851 107.688 14.5487L100.001 10.0646C72.6296 -5.90183 37.6476 1.06348 18.4795 26.2966L-4.52344 56.5779" stroke="url(#paint0_linear_2543_26902)" stroke-opacity="0.2"/>
<path d="M278.692 -36.054L192.229 -19.8668C177.921 -17.188 165.328 -8.77983 157.369 3.40899V3.40899C141.843 27.1864 110.415 34.6389 85.8666 20.3644L78.0923 15.8439C50.702 -0.0827478 15.7388 6.87621 -3.46566 32.0769L-26.4297 62.211" stroke="url(#paint1_linear_2543_26902)" stroke-opacity="0.2"/>
<path d="M287.767 -24.4751L201.303 -8.2879C186.995 -5.60915 174.402 2.79902 166.443 14.9878V14.9878C150.918 38.7652 119.49 46.2178 94.9408 31.9433L87.1665 27.4228C59.7763 11.4961 24.813 18.4551 5.60856 43.6558L-17.3555 73.7899" stroke="url(#paint2_linear_2543_26902)" stroke-opacity="0.2"/>
<defs>
<linearGradient id="paint0_linear_2543_26902" x1="148.038" y1="-42" x2="148.038" y2="56.5779" gradientUnits="userSpaceOnUse">
<stop stop-color="white"/>
<stop offset="1" stop-color="white" stop-opacity="0.4"/>
</linearGradient>
<linearGradient id="paint1_linear_2543_26902" x1="126.131" y1="-36.054" x2="126.131" y2="62.211" gradientUnits="userSpaceOnUse">
<stop stop-color="white"/>
<stop offset="1" stop-color="white" stop-opacity="0.4"/>
</linearGradient>
<linearGradient id="paint2_linear_2543_26902" x1="135.206" y1="-24.4751" x2="135.206" y2="73.7899" gradientUnits="userSpaceOnUse">
<stop stop-color="white"/>
<stop offset="1" stop-color="white" stop-opacity="0.4"/>
</linearGradient>
</defs>
</svg>
