<svg width="72" height="72" viewBox="0 0 72 72" fill="none" xmlns="http://www.w3.org/2000/svg">
<path opacity="0.2" d="M60.7305 28.3275C60.4844 22.4483 57.945 16.8995 53.6566 12.8704C49.3681 8.84121 43.6719 6.65239 37.7888 6.77305C31.9058 6.8937 26.3041 9.31423 22.1844 13.5158C18.0648 17.7174 15.755 23.3657 15.7502 29.25L9.183 41.8696C8.95657 42.397 8.94023 42.991 9.13733 43.53C9.33444 44.0691 9.73009 44.5124 10.2433 44.7693L18.0002 48.3215V58.5C18.0002 59.0967 18.2372 59.669 18.6592 60.091C19.0812 60.5129 19.6535 60.75 20.2502 60.75H33.7502C33.7502 61.9434 34.2243 63.088 35.0682 63.9319C35.9121 64.7759 37.0567 65.25 38.2502 65.25H54.0002L51.7502 47.25C54.6718 45.0628 57.0164 42.1967 58.5811 38.8996C60.1458 35.6025 60.8836 31.9738 60.7305 28.3275ZM31.5368 20.835C31.4149 19.903 31.5879 18.9562 32.0315 18.1276C32.4751 17.2989 33.167 16.63 34.0102 16.2146C34.8533 15.7993 35.8054 15.6584 36.7327 15.8117C37.6601 15.965 38.5161 16.4048 39.1807 17.0694C39.8454 17.734 40.2852 18.5901 40.4385 19.5174C40.5918 20.4448 40.4509 21.3968 40.0355 22.24C39.6202 23.0831 38.9512 23.7751 38.1226 24.2187C37.2939 24.6623 36.3472 24.8353 35.4152 24.7134C34.4317 24.5848 33.5182 24.1348 32.8168 23.4334C32.1154 22.732 31.6654 21.8185 31.5368 20.835ZM41.0993 42.7134C40.1673 42.8353 39.2205 42.6623 38.3919 42.2187C37.5632 41.7751 36.8943 41.0831 36.4789 40.24C36.0636 39.3968 35.9226 38.4447 36.076 37.5174C36.2293 36.5901 36.6691 35.734 37.3337 35.0694C37.9983 34.4048 38.8544 33.965 39.7817 33.8117C40.709 33.6583 41.6611 33.7993 42.5043 34.2146C43.3474 34.63 44.0394 35.2989 44.483 36.1276C44.9266 36.9562 45.0996 37.903 44.9777 38.835C44.8484 39.8206 44.3963 40.7356 43.6922 41.4373C42.988 42.1389 42.0713 42.5876 41.0852 42.7134H41.0993Z" fill="url(#paint0_linear_8146_6974)"/>
<path d="M54.1404 48.226C56.9857 45.8359 59.2586 42.8381 60.7919 39.4533C62.3251 36.0685 63.0796 32.3829 62.9998 28.6678C62.7185 15.8119 52.422 5.21158 39.5885 4.53658C36.2773 4.35635 32.9636 4.84338 29.8442 5.96874C26.7249 7.0941 23.8635 8.83484 21.43 11.0876C18.9965 13.3403 17.0405 16.0591 15.6783 19.0825C14.316 22.1059 13.5751 25.3722 13.4998 28.6875L7.18571 40.8319C7.16039 40.8825 7.13508 40.9331 7.11258 40.9838C6.65991 42.0389 6.62765 43.2271 7.0224 44.3052C7.41715 45.3833 8.20906 46.2698 9.23602 46.7831L9.30633 46.8141L15.7498 49.7644V58.5C15.7498 59.6935 16.2239 60.8381 17.0678 61.682C17.9117 62.5259 19.0563 63 20.2498 63H33.7498C34.3465 63 34.9188 62.763 35.3408 62.341C35.7627 61.9191 35.9998 61.3468 35.9998 60.75C35.9998 60.1533 35.7627 59.581 35.3408 59.159C34.9188 58.7371 34.3465 58.5 33.7498 58.5H20.2498V48.3216C20.2501 47.8903 20.1265 47.468 19.8936 47.105C19.6607 46.742 19.3285 46.4536 18.9363 46.2741L11.2498 42.75L17.7382 30.2794C17.9073 29.9625 17.9971 29.6092 17.9998 29.25C17.9991 24.661 19.5572 20.2078 22.4187 16.6202C25.2802 13.0325 29.2755 10.5232 33.7498 9.50346V13.8881C32.2485 14.4189 30.9833 15.4633 30.1776 16.8367C29.3719 18.2102 29.0777 19.8242 29.347 21.3935C29.6162 22.9629 30.4316 24.3866 31.649 25.4129C32.8664 26.4392 34.4075 27.0021 35.9998 27.0021C37.5921 27.0021 39.1331 26.4392 40.3505 25.4129C41.5679 24.3866 42.3833 22.9629 42.6526 21.3935C42.9218 19.8242 42.6276 18.2102 41.8219 16.8367C41.0163 15.4633 39.751 14.4189 38.2498 13.8881V9.00002C38.6154 9.00002 38.981 9.00002 39.3466 9.02814C43.3367 9.2567 47.1708 10.6566 50.3693 13.0528C53.5679 15.449 55.989 18.7351 57.3298 22.5H51.7498C51.4197 22.4999 51.0936 22.5724 50.7947 22.7124C50.4958 22.8524 50.2313 23.0564 50.0201 23.31L42.8454 31.9219C41.349 31.3643 39.7037 31.3539 38.2004 31.8925C36.6972 32.431 35.4328 33.4838 34.6309 34.8647C33.829 36.2456 33.5413 37.8656 33.8186 39.4382C34.096 41.0108 34.9205 42.4346 36.1464 43.4579C37.3723 44.4811 38.9206 45.0379 40.5175 45.0297C42.1143 45.0214 43.6567 44.4488 44.8721 43.413C46.0874 42.3772 46.8972 40.9449 47.1584 39.3696C47.4196 37.7942 47.1152 36.1773 46.2991 34.8047L52.8045 27H58.3704C58.4379 27.585 58.4791 28.1756 58.4941 28.7719C58.5643 31.9946 57.8668 35.1877 56.4594 38.0877C55.052 40.9876 52.9749 43.5112 50.3998 45.45C50.0825 45.6879 49.8336 46.0054 49.6786 46.3704C49.5235 46.7354 49.4676 47.1349 49.5166 47.5285L51.7666 65.5285C51.8351 66.0718 52.0994 66.5716 52.51 66.934C52.9206 67.2965 53.4493 67.4967 53.997 67.4972C54.091 67.4972 54.1849 67.4916 54.2782 67.4803C54.5715 67.4438 54.8547 67.3499 55.1117 67.2039C55.3686 67.0579 55.5943 66.8627 55.7758 66.6295C55.9574 66.3963 56.0912 66.1295 56.1696 65.8446C56.248 65.5596 56.2695 65.262 56.2329 64.9688L54.1404 48.226ZM35.9998 22.5C35.5548 22.5 35.1197 22.3681 34.7497 22.1208C34.3797 21.8736 34.0913 21.5222 33.921 21.1111C33.7507 20.6999 33.7062 20.2475 33.793 19.8111C33.8798 19.3746 34.0941 18.9737 34.4088 18.659C34.7234 18.3444 35.1244 18.1301 35.5608 18.0433C35.9973 17.9564 36.4497 18.001 36.8608 18.1713C37.2719 18.3416 37.6233 18.63 37.8706 19C38.1178 19.37 38.2498 19.805 38.2498 20.25C38.2498 20.8468 38.0127 21.4191 37.5908 21.841C37.1688 22.263 36.5965 22.5 35.9998 22.5ZM40.4998 40.5C40.0548 40.5 39.6197 40.3681 39.2497 40.1208C38.8797 39.8736 38.5913 39.5222 38.421 39.1111C38.2507 38.6999 38.2062 38.2475 38.293 37.8111C38.3798 37.3746 38.5941 36.9737 38.9088 36.659C39.2234 36.3444 39.6244 36.1301 40.0608 36.0433C40.4973 35.9564 40.9497 36.001 41.3608 36.1713C41.7719 36.3416 42.1233 36.63 42.3706 37C42.6178 37.37 42.7498 37.805 42.7498 38.25C42.7498 38.8468 42.5127 39.4191 42.0908 39.841C41.6688 40.263 41.0965 40.5 40.4998 40.5Z" fill="url(#paint1_linear_8146_6974)"/>
<defs>
<linearGradient id="paint0_linear_8146_6974" x1="34.8754" y1="6.76831" x2="34.8754" y2="65.25" gradientUnits="userSpaceOnUse">
<stop stop-color="#007CC4"/>
<stop offset="1" stop-color="#07296C"/>
</linearGradient>
<linearGradient id="paint1_linear_8146_6974" x1="34.8768" y1="4.5" x2="34.8768" y2="67.4972" gradientUnits="userSpaceOnUse">
<stop stop-color="#07486E"/>
<stop offset="0.454976" stop-color="#B5D1E8"/>
<stop offset="1" stop-color="#07296C"/>
</linearGradient>
</defs>
</svg>
