<svg width="72" height="72" viewBox="0 0 72 72" fill="none" xmlns="http://www.w3.org/2000/svg">
<path opacity="0.2" d="M58.4999 29.25C58.5029 32.6592 57.7297 36.0244 56.2391 39.0904C54.7485 42.1565 52.5795 44.8429 49.8964 46.9463C49.077 47.5813 48.4129 48.3945 47.9544 49.3242C47.4959 50.254 47.2549 51.2759 47.2499 52.3125V54C47.2499 54.5968 47.0128 55.1691 46.5909 55.591C46.1689 56.013 45.5966 56.25 44.9999 56.25H26.9999C26.4031 56.25 25.8308 56.013 25.4089 55.591C24.9869 55.1691 24.7499 54.5968 24.7499 54V52.3125C24.7488 51.2816 24.5126 50.2644 24.0594 49.3385C23.6062 48.4125 22.9478 47.602 22.1342 46.9688C19.4595 44.8793 17.293 42.2108 15.7975 39.1639C14.302 36.1169 13.5165 32.7707 13.4999 29.3766C13.4324 17.1816 23.2649 7.03127 35.457 6.75002C38.4571 6.67762 41.4414 7.20611 44.2342 8.30438C47.027 9.40265 49.5719 11.0485 51.719 13.1451C53.8662 15.2417 55.5722 17.7466 56.7367 20.5124C57.9013 23.2782 58.5007 26.249 58.4999 29.25Z" fill="url(#paint0_linear_8146_6964)"/>
<path d="M49.4999 65.25C49.4999 65.8467 49.2628 66.419 48.8409 66.841C48.4189 67.2629 47.8466 67.5 47.2499 67.5H24.7499C24.1531 67.5 23.5808 67.2629 23.1589 66.841C22.7369 66.419 22.4999 65.8467 22.4999 65.25C22.4999 64.6532 22.7369 64.0809 23.1589 63.659C23.5808 63.237 24.1531 63 24.7499 63H47.2499C47.8466 63 48.4189 63.237 48.8409 63.659C49.2628 64.0809 49.4999 64.6532 49.4999 65.25ZM60.7499 29.25C60.7596 33.0009 59.9122 36.7044 58.2725 40.0779C56.6328 43.4513 54.2441 46.4057 51.2886 48.7153C50.736 49.1389 50.2876 49.6832 49.9775 50.3067C49.6675 50.9301 49.5041 51.6162 49.4999 52.3125V54C49.4999 55.1935 49.0258 56.338 48.1819 57.182C47.3379 58.0259 46.1934 58.5 44.9999 58.5H26.9999C25.8064 58.5 24.6618 58.0259 23.8179 57.182C22.974 56.338 22.4999 55.1935 22.4999 54V52.3125C22.4994 51.6245 22.3412 50.9459 22.0375 50.3286C21.7337 49.7113 21.2925 49.1719 20.7477 48.7519C17.7996 46.4559 15.4125 43.5193 13.767 40.1645C12.1215 36.8096 11.2607 33.1244 11.2499 29.3878C11.1768 15.9834 22.0105 4.82061 35.4036 4.49998C38.7037 4.42046 41.9863 5.00188 45.0583 6.21003C48.1302 7.41818 50.9295 9.22865 53.2913 11.5349C55.653 13.8411 57.5296 16.5964 58.8105 19.6388C60.0914 22.6811 60.7508 25.949 60.7499 29.25ZM56.2499 29.25C56.2507 26.549 55.7111 23.8752 54.663 21.3859C53.6149 18.8966 52.0794 16.6422 50.1468 14.7552C48.2143 12.8683 45.9238 11.3871 43.4102 10.3987C40.8966 9.41026 38.2107 8.93471 35.5105 8.99998C24.5418 9.25873 15.6908 18.3909 15.7499 29.3597C15.7602 32.4157 16.4654 35.4294 17.8122 38.1726C19.1589 40.9159 21.112 43.3169 23.5236 45.194C24.6077 46.0368 25.4846 47.1164 26.0871 48.3502C26.6896 49.584 27.0019 50.9394 26.9999 52.3125V54H44.9999V52.3125C45.003 50.9355 45.3206 49.5774 45.9284 48.3418C46.5362 47.1062 47.4182 46.0257 48.5071 45.1828C50.9261 43.2923 52.8812 40.8741 54.2231 38.1128C55.565 35.3515 56.2582 32.3201 56.2499 29.25ZM51.7189 26.6231C51.1355 23.3643 49.5676 20.3624 47.2264 18.0216C44.8851 15.6809 41.8829 14.1137 38.6239 13.5309C38.3325 13.4818 38.0343 13.4906 37.7463 13.5567C37.4582 13.6228 37.1861 13.745 36.9453 13.9164C36.7045 14.0877 36.4998 14.3048 36.3429 14.5552C36.186 14.8056 36.0799 15.0845 36.0308 15.3759C35.9817 15.6673 35.9904 15.9656 36.0566 16.2536C36.1227 16.5416 36.2449 16.8138 36.4163 17.0546C36.5876 17.2954 36.8047 17.5001 37.0551 17.657C37.3055 17.8139 37.5844 17.9199 37.8758 17.969C42.5361 18.7537 46.4905 22.7081 47.2808 27.3769C47.3699 27.9009 47.6415 28.3765 48.0477 28.7193C48.4539 29.0622 48.9683 29.2502 49.4999 29.25C49.627 29.2492 49.754 29.2389 49.8796 29.219C50.4677 29.1186 50.9919 28.7888 51.3368 28.3019C51.6817 27.8151 51.8192 27.2113 51.7189 26.6231Z" fill="url(#paint1_linear_8146_6964)"/>
<defs>
<linearGradient id="paint0_linear_8146_6964" x1="35.9997" y1="6.74347" x2="35.9997" y2="56.25" gradientUnits="userSpaceOnUse">
<stop stop-color="#007CC4"/>
<stop offset="1" stop-color="#07296C"/>
</linearGradient>
<linearGradient id="paint1_linear_8146_6964" x1="35.9997" y1="4.4928" x2="35.9997" y2="67.5" gradientUnits="userSpaceOnUse">
<stop stop-color="#07486E"/>
<stop offset="0.454976" stop-color="#B5D1E8"/>
<stop offset="1" stop-color="#07296C"/>
</linearGradient>
</defs>
</svg>
