<svg width="37" height="36" viewBox="0 0 37 36" fill="none" xmlns="http://www.w3.org/2000/svg">
<path opacity="0.2" d="M18.5 3.375C15.5163 3.375 12.6548 4.56026 10.545 6.67005C8.43526 8.77983 7.25 11.6413 7.25 14.625C7.25 24.75 18.5 32.625 18.5 32.625C18.5 32.625 29.75 24.75 29.75 14.625C29.75 11.6413 28.5647 8.77983 26.455 6.67005C24.3452 4.56026 21.4837 3.375 18.5 3.375ZM18.5 19.125C17.61 19.125 16.74 18.8611 15.9999 18.3666C15.2599 17.8721 14.6831 17.1693 14.3425 16.3471C14.0019 15.5248 13.9128 14.62 14.0865 13.7471C14.2601 12.8742 14.6887 12.0724 15.318 11.443C15.9474 10.8137 16.7492 10.3851 17.6221 10.2115C18.495 10.0378 19.3998 10.1269 20.2221 10.4675C21.0443 10.8081 21.7471 11.3849 22.2416 12.1249C22.7361 12.865 23 13.735 23 14.625C23 15.8185 22.5259 16.9631 21.682 17.807C20.8381 18.6509 19.6935 19.125 18.5 19.125Z" fill="white"/>
<path d="M28.625 31.5H21.6697C22.8381 30.4567 23.9399 29.3413 24.9688 28.1602C28.8289 23.7206 30.875 19.0406 30.875 14.625C30.875 11.3429 29.5712 8.19532 27.2504 5.87455C24.9297 3.55379 21.7821 2.25 18.5 2.25C15.2179 2.25 12.0703 3.55379 9.74955 5.87455C7.42879 8.19532 6.125 11.3429 6.125 14.625C6.125 19.0406 8.16547 23.7206 12.0312 28.1602C13.0601 29.3413 14.1619 30.4567 15.3303 31.5H8.375C8.07663 31.5 7.79048 31.6185 7.57951 31.8295C7.36853 32.0405 7.25 32.3266 7.25 32.625C7.25 32.9234 7.36853 33.2095 7.57951 33.4205C7.79048 33.6315 8.07663 33.75 8.375 33.75H28.625C28.9234 33.75 29.2095 33.6315 29.4205 33.4205C29.6315 33.2095 29.75 32.9234 29.75 32.625C29.75 32.3266 29.6315 32.0405 29.4205 31.8295C29.2095 31.6185 28.9234 31.5 28.625 31.5ZM8.375 14.625C8.375 11.9397 9.44174 9.36435 11.3405 7.46554C13.2393 5.56674 15.8147 4.5 18.5 4.5C21.1853 4.5 23.7606 5.56674 25.6595 7.46554C27.5583 9.36435 28.625 11.9397 28.625 14.625C28.625 22.673 20.8245 29.3906 18.5 31.2188C16.1755 29.3906 8.375 22.673 8.375 14.625ZM24.125 14.625C24.125 13.5125 23.7951 12.4249 23.177 11.4999C22.5589 10.5749 21.6804 9.85392 20.6526 9.42818C19.6248 9.00243 18.4938 8.89104 17.4026 9.10808C16.3115 9.32512 15.3092 9.86085 14.5225 10.6475C13.7359 11.4342 13.2001 12.4365 12.9831 13.5276C12.766 14.6188 12.8774 15.7498 13.3032 16.7776C13.7289 17.8054 14.4499 18.6839 15.3749 19.302C16.2999 19.9201 17.3875 20.25 18.5 20.25C19.9918 20.25 21.4226 19.6574 22.4775 18.6025C23.5324 17.5476 24.125 16.1168 24.125 14.625ZM15.125 14.625C15.125 13.9575 15.3229 13.305 15.6938 12.75C16.0646 12.1949 16.5917 11.7624 17.2084 11.5069C17.8251 11.2515 18.5037 11.1846 19.1584 11.3148C19.8131 11.4451 20.4145 11.7665 20.8865 12.2385C21.3585 12.7105 21.6799 13.3119 21.8102 13.9666C21.9404 14.6213 21.8735 15.2999 21.6181 15.9166C21.3626 16.5333 20.9301 17.0604 20.375 17.4312C19.82 17.8021 19.1675 18 18.5 18C17.6049 18 16.7464 17.6444 16.1135 17.0115C15.4806 16.3786 15.125 15.5201 15.125 14.625Z" fill="white"/>
</svg>
