<svg width="72" height="72" viewBox="0 0 72 72" fill="none" xmlns="http://www.w3.org/2000/svg">
<path opacity="0.2" d="M60.75 15.75V31.5C60.75 58.5 36 65.25 36 65.25C36 65.25 11.25 58.5 11.25 31.5V15.75C11.25 15.1533 11.4871 14.581 11.909 14.159C12.331 13.7371 12.9033 13.5 13.5 13.5H58.5C59.0967 13.5 59.669 13.7371 60.091 14.159C60.5129 14.581 60.75 15.1533 60.75 15.75Z" fill="url(#paint0_linear_8150_17571)"/>
<path d="M58.5 11.25H13.5C12.3065 11.25 11.1619 11.7241 10.318 12.568C9.47411 13.4119 9 14.5565 9 15.75V31.5C9 46.3275 16.1775 55.3134 22.1991 60.2409C28.6847 65.5453 35.1366 67.3453 35.4178 67.4212C35.8045 67.5265 36.2123 67.5265 36.5991 67.4212C36.8803 67.3453 43.3237 65.5453 49.8178 60.2409C55.8225 55.3134 63 46.3275 63 31.5V15.75C63 14.5565 62.5259 13.4119 61.682 12.568C60.8381 11.7241 59.6935 11.25 58.5 11.25ZM58.5 31.5C58.5 41.9259 54.6581 50.3887 47.0812 56.6494C43.783 59.3654 40.0319 61.479 36 62.8931C32.0209 61.5037 28.3161 59.4276 25.0538 56.7591C17.3869 50.4872 13.5 41.9906 13.5 31.5V15.75H58.5V31.5ZM23.1581 39.8419C22.7359 39.4197 22.4987 38.8471 22.4987 38.25C22.4987 37.6529 22.7359 37.0803 23.1581 36.6581C23.5803 36.2359 24.1529 35.9987 24.75 35.9987C25.3471 35.9987 25.9197 36.2359 26.3419 36.6581L31.5 41.8191L45.6581 27.6581C45.8672 27.4491 46.1153 27.2833 46.3885 27.1701C46.6616 27.057 46.9544 26.9987 47.25 26.9987C47.5456 26.9987 47.8384 27.057 48.1115 27.1701C48.3847 27.2833 48.6328 27.4491 48.8419 27.6581C49.0509 27.8672 49.2167 28.1153 49.3299 28.3885C49.443 28.6616 49.5013 28.9544 49.5013 29.25C49.5013 29.5456 49.443 29.8384 49.3299 30.1115C49.2167 30.3847 49.0509 30.6328 48.8419 30.8419L33.0919 46.5919C32.8829 46.8011 32.6348 46.967 32.3616 47.0803C32.0885 47.1935 31.7957 47.2518 31.5 47.2518C31.2043 47.2518 30.9115 47.1935 30.6384 47.0803C30.3652 46.967 30.1171 46.8011 29.9081 46.5919L23.1581 39.8419Z" fill="url(#paint1_linear_8150_17571)"/>
<defs>
<linearGradient id="paint0_linear_8150_17571" x1="36" y1="13.5" x2="36" y2="65.25" gradientUnits="userSpaceOnUse">
<stop stop-color="#007CC4"/>
<stop offset="1" stop-color="#07296C"/>
</linearGradient>
<linearGradient id="paint1_linear_8150_17571" x1="36" y1="11.25" x2="36" y2="67.5002" gradientUnits="userSpaceOnUse">
<stop stop-color="#07486E"/>
<stop offset="0.454976" stop-color="#B5D1E8"/>
<stop offset="1" stop-color="#07296C"/>
</linearGradient>
</defs>
</svg>
