<svg width="72" height="72" viewBox="0 0 72 72" fill="none" xmlns="http://www.w3.org/2000/svg">
<path opacity="0.2" d="M4.5 42.7508H13.5V58.5008H4.5C3.90326 58.5008 3.33097 58.2637 2.90901 57.8418C2.48705 57.4198 2.25 56.8475 2.25 56.2508V45.0008C2.25 44.404 2.48705 43.8317 2.90901 43.4098C3.33097 42.9878 3.90326 42.7508 4.5 42.7508ZM54.1519 11.2508C51.9616 11.2251 49.8134 11.8537 47.9826 13.0563C46.1517 14.2588 44.7215 15.9805 43.875 18.0008C43.0285 15.9805 41.5983 14.2588 39.7674 13.0563C37.9366 11.8537 35.7884 11.2251 33.5981 11.2508C27.4697 11.2508 22.5 16.4004 22.5 22.5008C22.5 26.5958 24.4688 30.2942 27.2053 33.7508H39.375C40.8668 33.7508 42.2976 34.3434 43.3525 35.3983C44.4074 36.4532 45 37.8839 45 39.3758C45 40.8676 44.4074 42.2983 43.3525 43.3532C42.2976 44.4081 40.8668 45.0008 39.375 45.0008H40.5L51.1256 42.5595C57.3244 37.9892 65.25 30.7217 65.25 22.5008C65.25 16.4004 60.2803 11.2508 54.1519 11.2508Z" fill="url(#paint0_linear_8250_17111)"/>
<path d="M64.7803 39.6734C64.0445 39.1064 63.2011 38.695 62.3012 38.4644C61.4014 38.2337 60.4641 38.1886 59.5462 38.3318C64.8281 32.9993 67.5 27.6978 67.5 22.5003C67.5 15.0556 61.5122 9.00026 54.1519 9.00026C52.1989 8.988 50.2669 9.40336 48.4915 10.2172C46.7162 11.031 45.1404 12.2236 43.875 13.7112C42.6096 12.2236 41.0338 11.031 39.2585 10.2172C37.4831 9.40336 35.5511 8.988 33.5981 9.00026C26.2378 9.00026 20.25 15.0556 20.25 22.5003C20.25 25.594 21.1612 28.6006 23.0794 31.7815C21.5084 32.1795 20.0748 32.996 18.9309 34.144L12.5691 40.5003H4.5C3.30653 40.5003 2.16193 40.9744 1.31802 41.8183C0.474106 42.6622 0 43.8068 0 45.0003L0 56.2503C0 57.4437 0.474106 58.5883 1.31802 59.4322C2.16193 60.2762 3.30653 60.7503 4.5 60.7503H33.75C33.934 60.7504 34.1172 60.7277 34.2956 60.6828L52.2956 56.1828C52.4104 56.1554 52.5224 56.1178 52.6303 56.0703L63.5625 51.4184L63.6862 51.3621C64.7369 50.8371 65.6366 50.0533 66.3006 49.0845C66.9646 48.1156 67.3711 46.9937 67.4816 45.8244C67.5922 44.6551 67.4033 43.4769 66.9327 42.4007C66.462 41.3246 65.7252 40.386 64.7916 39.6734H64.7803ZM33.5981 13.5003C35.3408 13.4748 37.0515 13.9696 38.5114 14.9215C39.9713 15.8734 41.1141 17.2391 41.7938 18.844C41.9633 19.2567 42.2516 19.6097 42.6222 19.8581C42.9928 20.1065 43.4289 20.2391 43.875 20.2391C44.3211 20.2391 44.7572 20.1065 45.1278 19.8581C45.4984 19.6097 45.7867 19.2567 45.9562 18.844C46.6359 17.2391 47.7787 15.8734 49.2386 14.9215C50.6985 13.9696 52.4092 13.4748 54.1519 13.5003C58.9472 13.5003 63 17.6206 63 22.5003C63 27.9875 58.5591 34.1946 50.1581 40.4721L47.0391 41.1893C47.3128 40.0328 47.3213 38.8293 47.0638 37.6691C46.8063 36.5088 46.2895 35.4219 45.5522 34.4898C44.8149 33.5576 43.8762 32.8045 42.8064 32.2867C41.7366 31.769 40.5635 31.5001 39.375 31.5003H28.3162C25.8891 28.2265 24.75 25.3465 24.75 22.5003C24.75 17.6206 28.8028 13.5003 33.5981 13.5003ZM4.5 45.0003H11.25V56.2503H4.5V45.0003ZM61.7147 47.3093L51.0272 51.8599L33.4688 56.2503H15.75V43.6812L22.1147 37.3193C22.531 36.8996 23.0267 36.5669 23.5727 36.3405C24.1188 36.114 24.7045 35.9984 25.2956 36.0003H39.375C40.2701 36.0003 41.1285 36.3558 41.7615 36.9888C42.3944 37.6217 42.75 38.4802 42.75 39.3753C42.75 40.2704 42.3944 41.1288 41.7615 41.7617C41.1285 42.3947 40.2701 42.7503 39.375 42.7503H31.5C30.9033 42.7503 30.331 42.9873 29.909 43.4093C29.4871 43.8312 29.25 44.4035 29.25 45.0003C29.25 45.597 29.4871 46.1693 29.909 46.5913C30.331 47.0132 30.9033 47.2503 31.5 47.2503H40.5C40.6694 47.2498 40.8382 47.2309 41.0034 47.194L59.8472 42.86L59.9344 42.8375C60.5096 42.6778 61.1236 42.7364 61.6582 43.0022C62.1927 43.268 62.6101 43.7221 62.8301 44.2771C63.05 44.8321 63.0568 45.4488 62.8494 46.0086C62.6419 46.5684 62.2348 47.0317 61.7062 47.3093H61.7147Z" fill="url(#paint1_linear_8250_17111)"/>
<defs>
<linearGradient id="paint0_linear_8250_17111" x1="33.75" y1="11.25" x2="33.75" y2="58.5008" gradientUnits="userSpaceOnUse">
<stop stop-color="#007CC4"/>
<stop offset="1" stop-color="#07296C"/>
</linearGradient>
<linearGradient id="paint1_linear_8250_17111" x1="33.7562" y1="9" x2="33.7562" y2="60.7503" gradientUnits="userSpaceOnUse">
<stop stop-color="#07486E"/>
<stop offset="0.454976" stop-color="#B5D1E8"/>
<stop offset="1" stop-color="#07296C"/>
</linearGradient>
</defs>
</svg>
