<svg width="72" height="72" viewBox="0 0 72 72" fill="none" xmlns="http://www.w3.org/2000/svg">
<g clip-path="url(#clip0_8250_17133)">
<path opacity="0.2" d="M54 42.75C54 45.7047 53.418 48.6306 52.2873 51.3604C51.1566 54.0902 49.4992 56.5706 47.4099 58.6599C45.3206 60.7492 42.8402 62.4066 40.1104 63.5373C37.3806 64.668 34.4547 65.25 31.5 65.25C31.5 65.25 40.5 58.5 40.5 42.75H54ZM31.5 20.25C31.5 20.25 22.5 27 22.5 42.75H40.5C40.5 27 31.5 20.25 31.5 20.25Z" fill="url(#paint0_linear_8250_17133)"/>
<path d="M33.75 18.1041V4.5C33.75 3.90326 33.513 3.33097 33.091 2.90901C32.6691 2.48705 32.0968 2.25 31.5 2.25C30.9033 2.25 30.331 2.48705 29.909 2.90901C29.4871 3.33097 29.25 3.90326 29.25 4.5V18.1041C22.9073 18.6831 17.0319 21.685 12.8459 26.4854C8.66003 31.2858 6.48585 37.5152 6.77566 43.8777C7.06546 50.2403 9.79694 56.2462 14.4019 60.6462C19.0069 65.0462 25.1309 67.5016 31.5 67.5016C37.8692 67.5016 43.9931 65.0462 48.5981 60.6462C53.2031 56.2462 55.9346 50.2403 56.2244 43.8777C56.5142 37.5152 54.34 31.2858 50.1541 26.4854C45.9682 21.685 40.0928 18.6831 33.75 18.1041ZM51.6206 40.5H42.6853C42.2607 32.5238 39.6507 26.8988 37.2178 23.3269C41.0397 24.4587 44.4436 26.6909 47.0049 29.7449C49.5662 32.7989 51.1716 36.5395 51.6206 40.5ZM24.8175 45H38.1825C37.62 54.4275 33.646 59.8922 31.5 62.1787C29.3513 59.8866 25.3772 54.4247 24.8175 45ZM24.8175 40.5C25.38 31.0725 29.3541 25.6078 31.5 23.3212C33.6488 25.6134 37.6228 31.0753 38.1825 40.5H24.8175ZM25.7822 23.3269C23.3438 26.8988 20.7394 32.5238 20.3147 40.5H11.3794C11.8285 36.5395 13.4338 32.7989 15.9951 29.7449C18.5565 26.6909 21.9604 24.4587 25.7822 23.3269ZM11.3794 45H20.3147C20.7394 52.9762 23.3494 58.6012 25.7822 62.1731C21.9604 61.0413 18.5565 58.8091 15.9951 55.7551C13.4338 52.7011 11.8285 48.9605 11.3794 45ZM37.2178 62.1731C39.6507 58.6012 42.2607 52.9762 42.6853 45H51.6206C51.1716 48.9605 49.5662 52.7011 47.0049 55.7551C44.4436 58.8091 41.0397 61.0413 37.2178 62.1731ZM72 24.75C72 25.3467 71.763 25.919 71.341 26.341C70.9191 26.7629 70.3468 27 69.75 27H67.5V29.25C67.5 29.8467 67.263 30.419 66.841 30.841C66.4191 31.2629 65.8468 31.5 65.25 31.5C64.6533 31.5 64.081 31.2629 63.659 30.841C63.2371 30.419 63 29.8467 63 29.25V27H60.75C60.1533 27 59.581 26.7629 59.159 26.341C58.7371 25.919 58.5 25.3467 58.5 24.75C58.5 24.1533 58.7371 23.581 59.159 23.159C59.581 22.7371 60.1533 22.5 60.75 22.5H63V20.25C63 19.6533 63.2371 19.081 63.659 18.659C64.081 18.2371 64.6533 18 65.25 18C65.8468 18 66.4191 18.2371 66.841 18.659C67.263 19.081 67.5 19.6533 67.5 20.25V22.5H69.75C70.3468 22.5 70.9191 22.7371 71.341 23.159C71.763 23.581 72 24.1533 72 24.75ZM42.75 11.25C42.75 10.6533 42.9871 10.081 43.409 9.65901C43.831 9.23705 44.4033 9 45 9H49.5V4.5C49.5 3.90326 49.7371 3.33097 50.159 2.90901C50.581 2.48705 51.1533 2.25 51.75 2.25C52.3468 2.25 52.9191 2.48705 53.341 2.90901C53.763 3.33097 54 3.90326 54 4.5V9H58.5C59.0968 9 59.6691 9.23705 60.091 9.65901C60.513 10.081 60.75 10.6533 60.75 11.25C60.75 11.8467 60.513 12.419 60.091 12.841C59.6691 13.2629 59.0968 13.5 58.5 13.5H54V18C54 18.5967 53.763 19.169 53.341 19.591C52.9191 20.0129 52.3468 20.25 51.75 20.25C51.1533 20.25 50.581 20.0129 50.159 19.591C49.7371 19.169 49.5 18.5967 49.5 18V13.5H45C44.4033 13.5 43.831 13.2629 43.409 12.841C42.9871 12.419 42.75 11.8467 42.75 11.25Z" fill="url(#paint1_linear_8250_17133)"/>
</g>
<defs>
<linearGradient id="paint0_linear_8250_17133" x1="38.25" y1="20.25" x2="38.25" y2="65.25" gradientUnits="userSpaceOnUse">
<stop stop-color="#007CC4"/>
<stop offset="1" stop-color="#07296C"/>
</linearGradient>
<linearGradient id="paint1_linear_8250_17133" x1="39.375" y1="2.25" x2="39.375" y2="67.5016" gradientUnits="userSpaceOnUse">
<stop stop-color="#07486E"/>
<stop offset="0.454976" stop-color="#B5D1E8"/>
<stop offset="1" stop-color="#07296C"/>
</linearGradient>
<clipPath id="clip0_8250_17133">
<rect width="72" height="72" fill="white"/>
</clipPath>
</defs>
</svg>
