<svg width="72" height="72" viewBox="0 0 72 72" fill="none" xmlns="http://www.w3.org/2000/svg">
<path opacity="0.2" d="M63 36C63 41.3401 61.4165 46.5603 58.4497 51.0004C55.4829 55.4405 51.2661 58.9012 46.3325 60.9447C41.3989 62.9883 35.9701 63.523 30.7326 62.4812C25.4951 61.4394 20.6841 58.8679 16.9081 55.0919C13.1321 51.3159 10.5606 46.5049 9.51881 41.2674C8.47701 36.03 9.0117 30.6012 11.0553 25.6675C13.0988 20.7339 16.5595 16.5171 20.9996 13.5503C25.4397 10.5835 30.6599 9 36 9C43.1609 9 50.0284 11.8446 55.0919 16.9081C60.1554 21.9716 63 28.8392 63 36Z" fill="url(#paint0_linear_8250_17144)"/>
<path d="M65.25 38.4355C64.772 43.9929 62.7167 49.2982 59.3259 53.7272C55.9351 58.1562 51.3499 61.5246 46.1098 63.4362C40.8696 65.3478 35.1925 65.7231 29.7463 64.5178C24.3001 63.3125 19.3115 60.5768 15.3673 56.6326C11.4231 52.6884 8.68742 47.6997 7.48212 42.2536C6.27682 36.8074 6.65204 31.1303 8.56364 25.8901C10.4752 20.6499 13.8437 16.0647 18.2727 12.674C22.7017 9.28317 28.007 7.22786 33.5644 6.74983C33.8599 6.72546 34.1573 6.75951 34.4396 6.85007C34.7219 6.94062 34.9836 7.08589 35.2098 7.27758C35.436 7.46928 35.6222 7.70364 35.7577 7.9673C35.8933 8.23095 35.9757 8.51873 36.0001 8.81421C36.0244 9.10968 35.9904 9.40706 35.8998 9.68937C35.8093 9.97169 35.664 10.2334 35.4723 10.4596C35.2806 10.6857 35.0462 10.8719 34.7826 11.0075C34.5189 11.1431 34.2312 11.2255 33.9357 11.2498C29.232 11.654 24.7416 13.3931 20.9929 16.2627C17.2441 19.1323 14.3929 23.0129 12.7748 27.4479C11.1567 31.883 10.8389 36.6879 11.8589 41.2974C12.8789 45.9069 15.1943 50.1291 18.5325 53.4674C21.8708 56.8056 26.093 59.1209 30.7025 60.141C35.312 61.161 40.1169 60.8432 44.5519 59.2251C48.987 57.607 52.8676 54.7558 55.7372 51.007C58.6067 47.2583 60.3459 42.7679 60.75 38.0642C60.7993 37.4675 61.0835 36.9147 61.5403 36.5276C61.9971 36.1404 62.5889 35.9506 63.1857 35.9998C63.7824 36.0491 64.3352 36.3333 64.7223 36.7901C65.1094 37.2469 65.2993 37.8387 65.25 38.4355ZM33.7501 20.2498V35.9998C33.7501 36.5966 33.9871 37.1689 34.4091 37.5908C34.831 38.0128 35.4033 38.2498 36.0001 38.2498H51.75C52.3468 38.2498 52.9191 38.0128 53.341 37.5908C53.763 37.1689 54 36.5966 54 35.9998C54 35.4031 53.763 34.8308 53.341 34.4088C52.9191 33.9869 52.3468 33.7498 51.75 33.7498H38.2501V20.2498C38.2501 19.6531 38.013 19.0808 37.591 18.6588C37.1691 18.2369 36.5968 17.9998 36.0001 17.9998C35.4033 17.9998 34.831 18.2369 34.4091 18.6588C33.9871 19.0808 33.7501 19.6531 33.7501 20.2498ZM45 13.4998C45.6676 13.4998 46.3201 13.3019 46.8751 12.931C47.4301 12.5602 47.8627 12.0331 48.1181 11.4164C48.3736 10.7997 48.4404 10.1211 48.3102 9.4664C48.18 8.81172 47.8585 8.21035 47.3865 7.73835C46.9145 7.26634 46.3132 6.94491 45.6585 6.81468C45.0038 6.68446 44.3252 6.75129 43.7085 7.00674C43.0918 7.26218 42.5647 7.69477 42.1938 8.24978C41.823 8.8048 41.625 9.45732 41.625 10.1248C41.625 11.0199 41.9806 11.8784 42.6136 12.5113C43.2465 13.1443 44.1049 13.4998 45 13.4998ZM55.125 20.2498C55.7926 20.2498 56.4451 20.0519 57.0001 19.681C57.5551 19.3102 57.9877 18.7831 58.2431 18.1664C58.4986 17.5497 58.5654 16.8711 58.4352 16.2164C58.305 15.5617 57.9835 14.9603 57.5115 14.4883C57.0395 14.0163 56.4382 13.6949 55.7835 13.5647C55.1288 13.4345 54.4502 13.5013 53.8335 13.7567C53.2168 14.0122 52.6897 14.4448 52.3188 14.9998C51.948 15.5548 51.75 16.2073 51.75 16.8748C51.75 17.7699 52.1056 18.6284 52.7386 19.2613C53.3715 19.8943 54.2299 20.2498 55.125 20.2498ZM61.875 30.3748C62.5426 30.3748 63.1951 30.1769 63.7501 29.806C64.3051 29.4352 64.7377 28.9081 64.9931 28.2914C65.2486 27.6747 65.3154 26.9961 65.1852 26.3414C65.055 25.6867 64.7335 25.0853 64.2615 24.6133C63.7895 24.1413 63.1882 23.8199 62.5335 23.6897C61.8788 23.5595 61.2002 23.6263 60.5835 23.8817C59.9668 24.1372 59.4397 24.5698 59.0688 25.1248C58.698 25.6798 58.5 26.3323 58.5 26.9998C58.5 27.8949 58.8556 28.7534 59.4886 29.3863C60.1215 30.0193 60.9799 30.3748 61.875 30.3748Z" fill="url(#paint1_linear_8250_17144)"/>
<defs>
<linearGradient id="paint0_linear_8250_17144" x1="36" y1="9" x2="36" y2="63" gradientUnits="userSpaceOnUse">
<stop stop-color="#007CC4"/>
<stop offset="1" stop-color="#07296C"/>
</linearGradient>
<linearGradient id="paint1_linear_8250_17144" x1="36.024" y1="6.74219" x2="36.024" y2="65.2096" gradientUnits="userSpaceOnUse">
<stop stop-color="#07486E"/>
<stop offset="0.454976" stop-color="#B5D1E8"/>
<stop offset="1" stop-color="#07296C"/>
</linearGradient>
</defs>
</svg>
