<svg width="72" height="72" viewBox="0 0 72 72" fill="none" xmlns="http://www.w3.org/2000/svg">
<path opacity="0.2" d="M67.5 37.125C67.5 42.7162 57.4256 47.25 45 47.25C39.4875 47.25 34.4362 46.3584 30.5241 44.8762C41.2762 44.1141 49.5 39.9375 49.5 34.875V27.2025C59.7713 28.1419 67.5 32.2256 67.5 37.125ZM49.5 23.625C49.5 18.0338 39.4256 13.5 27 13.5C14.5744 13.5 4.5 18.0338 4.5 23.625C4.5 29.2162 14.5744 33.75 27 33.75C39.4256 33.75 49.5 29.2162 49.5 23.625Z" fill="url(#paint0_linear_8250_17100)"/>
<path d="M51.75 25.1916V23.625C51.75 16.5712 41.1103 11.25 27 11.25C12.8897 11.25 2.25 16.5712 2.25 23.625V34.875C2.25 40.7503 9.63281 45.4191 20.25 46.8169V48.375C20.25 55.4287 30.8897 60.75 45 60.75C59.1103 60.75 69.75 55.4287 69.75 48.375V37.125C69.75 31.3031 62.6006 26.6287 51.75 25.1916ZM65.25 37.125C65.25 40.8431 56.5903 45 45 45C43.9509 45 42.9103 44.9634 41.8838 44.8959C47.9503 42.6853 51.75 39.0938 51.75 34.875V29.7394C60.1509 30.9909 65.25 34.3884 65.25 37.125ZM20.25 42.2578V35.5669C22.4881 35.8585 24.743 36.0032 27 36C29.257 36.0032 31.5119 35.8585 33.75 35.5669V42.2578C31.5152 42.588 29.2591 42.7525 27 42.75C24.7409 42.7525 22.4848 42.588 20.25 42.2578ZM47.25 30.9178V34.875C47.25 37.2347 43.7597 39.7687 38.25 41.3072V34.7344C41.8809 33.8541 44.955 32.5434 47.25 30.9178ZM27 15.75C38.5903 15.75 47.25 19.9069 47.25 23.625C47.25 27.3431 38.5903 31.5 27 31.5C15.4097 31.5 6.75 27.3431 6.75 23.625C6.75 19.9069 15.4097 15.75 27 15.75ZM6.75 34.875V30.9178C9.045 32.5434 12.1191 33.8541 15.75 34.7344V41.3072C10.2403 39.7687 6.75 37.2347 6.75 34.875ZM24.75 48.375V47.2022C25.4897 47.2303 26.2378 47.25 27 47.25C28.0912 47.25 29.1572 47.2134 30.2034 47.1516C31.3657 47.5676 32.5496 47.9207 33.75 48.2091V54.8072C28.2403 53.2687 24.75 50.7347 24.75 48.375ZM38.25 55.7578V49.05C40.4874 49.3508 42.7425 49.5011 45 49.5C47.257 49.5032 49.5119 49.3585 51.75 49.0669V55.7578C47.2739 56.414 42.7261 56.414 38.25 55.7578ZM56.25 54.8072V48.2344C59.8809 47.3541 62.955 46.0434 65.25 44.4178V48.375C65.25 50.7347 61.7597 53.2687 56.25 54.8072Z" fill="url(#paint1_linear_8250_17100)"/>
<defs>
<linearGradient id="paint0_linear_8250_17100" x1="36" y1="13.5" x2="36" y2="47.25" gradientUnits="userSpaceOnUse">
<stop stop-color="#007CC4"/>
<stop offset="1" stop-color="#07296C"/>
</linearGradient>
<linearGradient id="paint1_linear_8250_17100" x1="36" y1="11.25" x2="36" y2="60.75" gradientUnits="userSpaceOnUse">
<stop stop-color="#07486E"/>
<stop offset="0.454976" stop-color="#B5D1E8"/>
<stop offset="1" stop-color="#07296C"/>
</linearGradient>
</defs>
</svg>
