<svg width="72" height="72" viewBox="0 0 72 72" fill="none" xmlns="http://www.w3.org/2000/svg">
<path opacity="0.2" d="M49.5 36C49.5 38.67 48.7082 41.2801 47.2248 43.5002C45.7414 45.7203 43.633 47.4506 41.1662 48.4724C38.6994 49.4942 35.985 49.7615 33.3663 49.2406C30.7475 48.7197 28.3421 47.434 26.4541 45.5459C24.5661 43.6579 23.2803 41.2525 22.7594 38.6337C22.2385 36.015 22.5058 33.3006 23.5276 30.8338C24.5494 28.367 26.2797 26.2586 28.4998 24.7752C30.7199 23.2918 33.33 22.5 36 22.5C39.5804 22.5 43.0142 23.9223 45.5459 26.4541C48.0777 28.9858 49.5 32.4196 49.5 36Z" fill="url(#paint0_linear_8146_6984)"/>
<path d="M62.4008 23.3888C65.523 29.9188 66.1157 37.374 64.0645 44.3154C62.0133 51.2567 57.4636 57.1923 51.2935 60.9764C45.1234 64.7605 37.7702 66.125 30.6532 64.8065C23.5362 63.488 17.1599 59.5799 12.7549 53.8365C8.34985 48.0932 6.2284 40.9217 6.79998 33.7062C7.37155 26.4907 10.5956 19.7427 15.8499 14.7645C21.1043 9.78634 28.0164 6.93091 35.2522 6.74933C42.488 6.56776 49.5346 9.0729 55.032 13.7813L61.408 7.40252C61.8302 6.98033 62.4028 6.74314 62.9998 6.74314C63.5969 6.74314 64.1695 6.98033 64.5917 7.40252C65.0139 7.82471 65.2511 8.39733 65.2511 8.9944C65.2511 9.59146 65.0139 10.1641 64.5917 10.5863L37.5917 37.5863C37.1695 38.0085 36.5969 38.2456 35.9998 38.2456C35.4028 38.2456 34.8302 38.0085 34.408 37.5863C33.9858 37.1641 33.7486 36.5915 33.7486 35.9944C33.7486 35.3973 33.9858 34.8247 34.408 34.4025L42.2042 26.6063C40.0913 25.2089 37.5687 24.5655 35.0446 24.7802C32.5206 24.995 30.1429 26.0553 28.2964 27.7895C26.45 29.5238 25.2429 31.8304 24.8705 34.3361C24.4982 36.8417 24.9824 39.3997 26.2447 41.596C27.5071 43.7922 29.4737 45.4981 31.8262 46.4375C34.1788 47.377 36.7795 47.4949 39.2074 46.7723C41.6353 46.0497 43.7483 44.5289 45.2043 42.456C46.6603 40.3831 47.3741 37.8794 47.2302 35.3503C47.2135 35.0549 47.2553 34.759 47.353 34.4797C47.4507 34.2003 47.6025 33.943 47.7997 33.7223C47.9968 33.5016 48.2356 33.3219 48.5022 33.1935C48.7688 33.065 49.0581 32.9904 49.3536 32.9738C49.9503 32.9402 50.536 33.1451 50.9817 33.5433C51.2023 33.7405 51.382 33.9792 51.5105 34.2458C51.6389 34.5124 51.7135 34.8017 51.7302 35.0972C51.9353 38.6769 50.9128 42.2194 48.8318 45.1393C46.7508 48.0592 43.7358 50.1816 40.2851 51.1558C36.8345 52.13 33.1547 51.8976 29.8539 50.4971C26.5532 49.0965 23.8292 46.6117 22.132 43.4532C20.4349 40.2947 19.8662 36.6517 20.52 33.1263C21.1738 29.6008 23.011 26.404 25.7278 24.0641C28.4447 21.7243 31.8786 20.3815 35.462 20.2576C39.0455 20.1338 42.5639 21.2364 45.4358 23.3831L51.8342 16.9847C47.1452 13.0916 41.1832 11.0682 35.0932 11.3031C29.0033 11.538 23.2148 14.0146 18.8396 18.2573C14.4644 22.4999 11.811 28.2095 11.3889 34.2893C10.9668 40.3692 12.8059 46.3906 16.553 51.1971C20.3 56.0036 25.6907 59.2563 31.6898 60.3304C37.6889 61.4045 43.8733 60.2242 49.0553 57.0164C54.2372 53.8085 58.0513 48.7993 59.7649 42.9507C61.4785 37.1021 60.9709 30.8265 58.3395 25.3294C58.0822 24.7908 58.0493 24.1721 58.2482 23.6093C58.447 23.0465 58.8613 22.5858 59.3998 22.3285C59.9384 22.0711 60.5571 22.0383 61.1199 22.2371C61.6827 22.4359 62.1434 22.8502 62.4008 23.3888Z" fill="url(#paint1_linear_8146_6984)"/>
<defs>
<linearGradient id="paint0_linear_8146_6984" x1="36" y1="22.5" x2="36" y2="49.5" gradientUnits="userSpaceOnUse">
<stop stop-color="#007CC4"/>
<stop offset="1" stop-color="#07296C"/>
</linearGradient>
<linearGradient id="paint1_linear_8146_6984" x1="35.9867" y1="6.74011" x2="35.9867" y2="65.2964" gradientUnits="userSpaceOnUse">
<stop stop-color="#07486E"/>
<stop offset="0.454976" stop-color="#B5D1E8"/>
<stop offset="1" stop-color="#07296C"/>
</linearGradient>
</defs>
</svg>
