<svg width="72" height="72" viewBox="0 0 72 72" fill="none" xmlns="http://www.w3.org/2000/svg">
<g clip-path="url(#clip0_8146_6944)">
<path opacity="0.2" d="M69.7501 35.761C69.7817 38.1448 69.3395 40.5112 68.4491 42.7227C67.5587 44.9342 66.2379 46.9468 64.5633 48.6437C62.8886 50.3406 60.8936 51.6879 58.694 52.6073C56.4944 53.5268 54.1341 54.0002 51.7501 54C47.3963 54 43.4026 51.3703 40.2891 48.7969C39.0857 47.7997 37.5725 47.2529 36.0096 47.2503C34.4467 47.2477 32.9318 47.7896 31.7251 48.7828C28.4035 51.5363 24.0779 54.1997 19.381 53.9803C14.6827 53.7605 10.257 51.7104 7.05115 48.2688C3.84527 44.8272 2.11385 40.2674 2.22742 35.5654C2.341 30.8633 4.29054 26.3924 7.65884 23.1096C11.0271 19.8268 15.5466 17.9927 20.2501 18H51.4829C61.3744 18 69.6207 25.875 69.7501 35.761Z" fill="url(#paint0_linear_8146_6944)"/>
<path d="M51.4829 15.75H20.2501C17.5103 15.75 14.799 16.306 12.2803 17.3842C9.76164 18.4625 7.48797 20.0407 5.59693 22.0232C3.7059 24.0058 2.23684 26.3514 1.27869 28.9182C0.320535 31.485 -0.106787 34.2195 0.0225918 36.9562C0.497904 47.2753 8.95509 55.7409 19.2742 56.2275C23.732 56.4356 28.2742 54.5681 33.1623 50.5181C33.963 49.856 34.9695 49.4937 36.0085 49.4937C37.0476 49.4937 38.0541 49.856 38.8548 50.5181C41.8276 52.9847 46.4063 56.25 51.7501 56.25C54.432 56.2502 57.0872 55.7177 59.5616 54.6834C62.0361 53.6491 64.2804 52.1335 66.1643 50.2248C68.0482 48.316 69.5342 46.052 70.536 43.5642C71.5378 41.0765 72.0355 38.4145 72.0001 35.7328C71.8567 24.7134 62.6513 15.75 51.4829 15.75ZM62.9607 47.0644C61.499 48.5535 59.7541 49.7352 57.8288 50.5399C55.9035 51.3446 53.8368 51.756 51.7501 51.75C47.8463 51.75 44.1563 49.0753 41.7235 47.0616C40.115 45.7325 38.0937 45.0055 36.0071 45.0055C33.9206 45.0055 31.8992 45.7325 30.2907 47.0616C26.3026 50.3438 22.7813 51.8878 19.4851 51.7331C15.5814 51.5208 11.8938 49.8734 9.13095 47.1075C6.36809 44.3415 4.72485 40.6521 4.51697 36.7481C4.41573 34.6191 4.74765 32.4918 5.49265 30.4948C6.23764 28.4979 7.3802 26.6729 8.85113 25.1305C10.3221 23.588 12.0908 22.3602 14.0501 21.5213C16.0095 20.6824 18.1187 20.2499 20.2501 20.25H51.4829C60.2017 20.25 67.3876 27.2222 67.5001 35.7891C67.5334 37.8762 67.149 39.9489 66.3694 41.8853C65.5898 43.8216 64.4309 45.5825 62.9607 47.0644ZM51.7501 27C51.7501 27.5967 51.513 28.169 51.0911 28.591C50.6691 29.0129 50.0968 29.25 49.5001 29.25H22.5001C21.9034 29.25 21.3311 29.0129 20.9091 28.591C20.4871 28.169 20.2501 27.5967 20.2501 27C20.2501 26.4033 20.4871 25.831 20.9091 25.409C21.3311 24.9871 21.9034 24.75 22.5001 24.75H49.5001C50.0968 24.75 50.6691 24.9871 51.0911 25.409C51.513 25.831 51.7501 26.4033 51.7501 27Z" fill="url(#paint1_linear_8146_6944)"/>
</g>
<defs>
<linearGradient id="paint0_linear_8146_6944" x1="35.9869" y1="18" x2="35.9869" y2="54" gradientUnits="userSpaceOnUse">
<stop stop-color="#007CC4"/>
<stop offset="1" stop-color="#07296C"/>
</linearGradient>
<linearGradient id="paint1_linear_8146_6944" x1="36.0009" y1="15.75" x2="36.0009" y2="56.25" gradientUnits="userSpaceOnUse">
<stop stop-color="#07486E"/>
<stop offset="0.454976" stop-color="#B5D1E8"/>
<stop offset="1" stop-color="#07296C"/>
</linearGradient>
<clipPath id="clip0_8146_6944">
<rect width="72" height="72" fill="white"/>
</clipPath>
</defs>
</svg>
