<svg width="133" height="54" viewBox="0 0 133 54" fill="none" xmlns="http://www.w3.org/2000/svg">
<path d="M77.3762 8.43633L77.3808 8.43228L75.4014 6.46093C75.1419 6.20215 74.996 5.85141 74.9956 5.48563V1.37892C74.9956 1.0133 74.8499 0.66266 74.5904 0.40408C74.331 0.145499 73.9791 0.000153224 73.6121 1.20907e-07H68.8034C68.6216 -7.57248e-05 68.4415 0.035533 68.2735 0.104789C68.1054 0.174045 67.9527 0.275595 67.8241 0.403639C67.6955 0.531683 67.5934 0.683712 67.5237 0.851051C67.4541 1.01839 67.4182 1.19776 67.4181 1.37892V5.54915C67.4181 5.91467 67.2732 6.26575 67.0135 6.52386L65.0978 8.43228L65.1019 8.43633H61.0352C60.6681 8.43633 60.316 8.58161 60.0565 8.8402C59.7969 9.0988 59.651 9.44953 59.651 9.81524V13.2874C59.651 13.6535 59.505 14.004 59.2453 14.2632L57.9267 15.5769C57.6671 15.8354 57.3152 15.9808 56.9482 15.9811H55.156C54.789 15.9811 54.437 16.1263 54.1775 16.3848C53.9179 16.6432 53.772 16.9938 53.7719 17.3594V19.1443C53.7719 19.5104 53.6258 19.8609 53.3661 20.1202L52.23 21.2519C51.9704 21.51 51.6185 21.6561 51.2516 21.6561H49.7991C49.432 21.6561 49.0801 21.8013 48.8205 22.0598C48.5609 22.3183 48.415 22.6689 48.4149 23.0345V25.0341C48.415 25.3997 48.5609 25.7503 48.8205 26.0088C49.0801 26.2673 49.432 26.4125 49.7991 26.4125H51.8063C52.1733 26.4125 52.5252 26.2672 52.7847 26.0088C53.0441 25.7503 53.1899 25.3997 53.1899 25.0341V23.5871C53.1899 23.2216 53.336 22.8711 53.5956 22.6124L54.7317 21.4806C54.8602 21.3524 55.0128 21.2507 55.1808 21.1814C55.3488 21.112 55.5289 21.0763 55.7107 21.0764H57.5029C57.87 21.0761 58.222 20.9306 58.4816 20.672C58.7411 20.4133 58.8869 20.0626 58.8871 19.6969V17.9126C58.8871 17.5465 59.0332 17.1954 59.2923 16.9373L60.6069 15.6271C60.8666 15.3687 61.2187 15.2235 61.5859 15.2235H65.0799C65.2617 15.2235 65.4417 15.1878 65.6096 15.1185C65.7775 15.0492 65.9301 14.9477 66.0586 14.8196C66.1872 14.6916 66.2891 14.5396 66.3587 14.3723C66.4282 14.205 66.464 14.0257 66.464 13.8446V10.3638C66.464 9.99829 66.6101 9.64779 66.8692 9.38852L68.3113 7.95244C68.4398 7.82428 68.5925 7.72262 68.7604 7.65326C68.9284 7.58391 69.1085 7.54822 69.2903 7.54824H73.1884C73.5553 7.54824 73.9071 7.69317 74.1673 7.95244L75.6095 9.38852C75.8686 9.64837 76.0146 9.99829 76.0146 10.3644V13.8446C76.0146 14.0257 76.0504 14.205 76.12 14.3723C76.1895 14.5396 76.2915 14.6916 76.42 14.8196C76.5486 14.9477 76.7012 15.0492 76.8691 15.1185C77.037 15.1878 77.217 15.2235 77.3988 15.2235H81.4435C81.6252 15.2235 81.8052 15.1878 81.9732 15.1185C82.1411 15.0492 82.2937 14.9477 82.4222 14.8196C82.5507 14.6916 82.6527 14.5396 82.7223 14.3723C82.7918 14.205 82.8276 14.0257 82.8276 13.8446V9.81524C82.8276 9.44953 82.6818 9.0988 82.4222 8.8402C82.1626 8.58161 81.8106 8.43633 81.4435 8.43633H77.3762ZM3.80644 54C3.0877 54 2.48083 53.866 1.98524 53.5987C1.50168 53.3419 1.10579 52.9475 0.848004 52.4658C0.585431 51.9784 0.454434 51.4067 0.454434 50.7508C0.454434 50.2455 0.531522 49.7911 0.685124 49.388C0.839306 48.985 1.06189 48.6374 1.3517 48.3458C1.65287 48.047 2.01811 47.8201 2.41996 47.6823C2.8431 47.5321 3.32013 47.4571 3.85165 47.4571C4.18048 47.4574 4.50844 47.4904 4.83065 47.5558C5.16215 47.6246 5.48025 47.7465 5.77255 47.9167C5.89891 47.9952 5.98528 48.09 6.03049 48.2014C6.0757 48.3128 6.08845 48.4283 6.06643 48.549C6.04694 48.6664 5.99699 48.7767 5.92152 48.8689C5.84845 48.9613 5.74641 49.0265 5.6317 49.0543C5.51404 49.0843 5.37956 49.06 5.22886 48.9821C5.028 48.8729 4.81337 48.7909 4.59069 48.7384C4.35147 48.6829 4.10653 48.6558 3.86093 48.6576C3.432 48.6576 3.07379 48.7384 2.78745 48.9007C2.50053 49.0635 2.28433 49.2991 2.13942 49.6092C1.99451 49.9193 1.92206 50.2998 1.92206 50.7508C1.92206 51.431 2.08667 51.9461 2.4159 52.2943C2.74514 52.643 3.23261 52.818 3.8789 52.818C4.09046 52.818 4.31246 52.7955 4.54489 52.7498C4.77733 52.7048 5.00512 52.6465 5.22886 52.5743L4.96628 53.1517V51.4096H4.15074C3.96932 51.4096 3.83079 51.3646 3.73399 51.2745C3.63719 51.1844 3.58908 51.058 3.58908 50.8957C3.58908 50.7398 3.63719 50.6174 3.73399 50.5296C3.83079 50.443 3.96932 50.3991 4.15074 50.3991H5.56388C5.74531 50.3991 5.88442 50.447 5.98064 50.5435C6.07744 50.6399 6.12555 50.775 6.12555 50.9494V53.0524C6.12555 53.2147 6.09367 53.3487 6.03049 53.4538C5.96731 53.5594 5.86587 53.6362 5.72676 53.6847C5.42905 53.7873 5.12304 53.8642 4.8121 53.9146C4.4736 53.9723 4.13857 54 3.80644 54ZM10.4658 54C10.0126 54 9.61203 53.9428 9.26483 53.8285C8.93677 53.7258 8.63742 53.5481 8.39075 53.3094C8.14867 53.0676 7.967 52.7725 7.86039 52.4479C7.74272 52.1049 7.6836 51.7076 7.6836 51.2566V48.1789C7.6836 47.9439 7.74446 47.7689 7.86502 47.6505C7.98674 47.5333 8.15831 47.475 8.38147 47.475C8.61101 47.475 8.78606 47.5333 8.9072 47.6505C9.02777 47.7683 9.08805 47.9439 9.08805 48.1789V51.2566C9.08805 51.774 9.20571 52.1632 9.44162 52.4248C9.67695 52.6869 10.0184 52.818 10.4652 52.818C10.9063 52.818 11.2443 52.6869 11.4796 52.4253C11.7155 52.1632 11.8332 51.774 11.8332 51.2566V48.1789C11.8332 47.9439 11.8935 47.7689 12.0146 47.6505C12.1352 47.5333 12.3102 47.475 12.5398 47.475C12.7507 47.475 12.9171 47.5333 13.0382 47.6505C13.1588 47.7683 13.2191 47.9439 13.2191 48.1789V51.2566C13.2191 51.8583 13.1147 52.3635 12.9067 52.7729C12.7081 53.1722 12.3835 53.4956 11.9827 53.6934C11.5747 53.8978 11.0698 54 10.4658 54ZM15.5301 53.9099C15.3063 53.9099 15.1324 53.847 15.0084 53.7205C14.8855 53.5941 14.8229 53.4203 14.8229 53.1968V48.2424C14.8229 48.0074 14.8838 47.8301 15.0043 47.7094C15.1255 47.5893 15.2976 47.5293 15.5202 47.5293C15.7503 47.5293 15.9254 47.5893 16.0465 47.7094C16.1671 47.8307 16.2274 48.0074 16.2274 48.2424V52.7279H18.6554C18.849 52.7279 18.9963 52.7787 19.0994 52.8809C19.202 52.9837 19.2536 53.1281 19.2536 53.314C19.2536 53.5069 19.2015 53.6547 19.0994 53.7563C18.9963 53.8591 18.849 53.9099 18.6554 53.9099H15.5301ZM21.0922 53.9821C20.8627 53.9821 20.6865 53.9192 20.5619 53.7927C20.4384 53.6662 20.3764 53.4867 20.3764 53.2511V48.2874C20.3764 48.0466 20.4401 47.863 20.5665 47.7366C20.694 47.6101 20.8749 47.5472 21.1102 47.5472H24.1996C24.3868 47.5472 24.5289 47.5939 24.6257 47.6869C24.7219 47.7805 24.7706 47.9144 24.7706 48.0888C24.7706 48.269 24.7219 48.4064 24.6257 48.4994C24.5289 48.5929 24.3868 48.6391 24.199 48.6391H21.7802V50.1826H24.0089C24.1903 50.1826 24.3295 50.2288 24.4263 50.3223C24.5225 50.4159 24.5712 50.5533 24.5712 50.7329C24.5712 50.9078 24.5225 51.043 24.4263 51.1394C24.3295 51.2358 24.1903 51.2838 24.0089 51.2838H21.7802V53.2511C21.7802 53.7384 21.5513 53.9821 21.0922 53.9821ZM29.5085 53.9821C29.2789 53.9821 29.1021 53.9192 28.9781 53.7927C28.8546 53.6662 28.7926 53.4867 28.7926 53.2511V48.2874C28.7926 48.0466 28.8558 47.863 28.9827 47.7366C29.1103 47.6101 29.2911 47.5472 29.5264 47.5472H32.6153C32.8031 47.5472 32.9451 47.5939 33.0419 47.6869C33.1381 47.7805 33.1868 47.9144 33.1868 48.0888C33.1868 48.269 33.1381 48.4064 33.0419 48.4994C32.9451 48.5929 32.8031 48.6391 32.6153 48.6391H30.1965V50.1826H32.4252C32.6066 50.1826 32.7457 50.2288 32.8425 50.3223C32.9387 50.4159 32.9874 50.5533 32.9874 50.7329C32.9874 50.9078 32.9387 51.043 32.8425 51.1394C32.7457 51.2358 32.6066 51.2838 32.4252 51.2838H30.1965V53.2511C30.1965 53.7384 29.9675 53.9821 29.5085 53.9821ZM35.0167 53.9821C34.793 53.9821 34.6208 53.9203 34.4997 53.7973C34.3791 53.6738 34.3188 53.4982 34.3188 53.269V48.1881C34.3188 47.9531 34.3791 47.7758 34.4997 47.6551C34.6208 47.535 34.793 47.475 35.0167 47.475C35.2462 47.475 35.4207 47.535 35.5419 47.6551C35.6624 47.7764 35.7233 47.9531 35.7233 48.1881V53.2696C35.7233 53.4982 35.6642 53.6738 35.5465 53.7973C35.4288 53.9203 35.252 53.9821 35.0167 53.9821ZM38.1061 53.9099C37.8708 53.9099 37.6888 53.847 37.5625 53.7205C37.4349 53.5941 37.3712 53.4104 37.3712 53.1697V48.2874C37.3712 48.0466 37.4349 47.863 37.5625 47.7366C37.6894 47.6101 37.8708 47.5472 38.1061 47.5472H41.268C41.4495 47.5472 41.5863 47.5939 41.6796 47.6869C41.7735 47.7805 41.8204 47.9144 41.8204 48.0888C41.8204 48.269 41.7735 48.4064 41.6802 48.4994C41.5863 48.5929 41.4495 48.6391 41.268 48.6391H38.7217V50.1289H41.0681C41.2559 50.1289 41.395 50.1751 41.4854 50.268C41.5758 50.3616 41.621 50.499 41.621 50.6786C41.621 50.8536 41.5758 50.9869 41.4854 51.0805C41.395 51.174 41.2559 51.2202 41.0681 51.2202H38.7217V52.818H41.268C41.4495 52.818 41.5863 52.8642 41.6796 52.9577C41.7735 53.0513 41.8204 53.1887 41.8204 53.3683C41.8204 53.5433 41.7735 53.6766 41.6802 53.7702C41.5863 53.8632 41.4495 53.9099 41.268 53.9099H38.1061ZM43.9222 53.9099C43.6984 53.9099 43.5245 53.847 43.4011 53.7205C43.2776 53.5941 43.215 53.4203 43.215 53.1968V48.2424C43.215 48.0074 43.2759 47.8301 43.3964 47.7094C43.5176 47.5893 43.6897 47.5293 43.9129 47.5293C44.1424 47.5293 44.3175 47.5893 44.4386 47.7094C44.5592 47.8307 44.6195 48.0074 44.6195 48.2424V52.7279H47.0475C47.2411 52.7279 47.3884 52.7787 47.4915 52.8809C47.5941 52.9837 47.6457 53.1281 47.6457 53.314C47.6457 53.5069 47.5941 53.6547 47.4915 53.7563C47.3884 53.8591 47.2411 53.9099 47.0475 53.9099H43.9222ZM50.1729 52.7637H51.1786C51.5229 52.7637 51.8237 52.7198 52.0799 52.6326C52.3367 52.546 52.55 52.419 52.7192 52.2538C52.8879 52.0881 53.0149 51.8785 53.0995 51.6216C53.1835 51.3663 53.227 51.0672 53.227 50.7236C53.227 50.0382 53.0572 49.5283 52.7192 49.194C52.3807 48.8602 51.8672 48.6934 51.1786 48.6934H50.1729V52.7637ZM49.5029 53.9099C49.2675 53.9099 49.0861 53.8464 48.9586 53.7205C48.8322 53.5941 48.7685 53.4104 48.7685 53.1697V48.2874C48.7685 48.0466 48.8322 47.863 48.9586 47.7366C49.0861 47.6101 49.2675 47.5472 49.5034 47.5472H51.2696C52.3564 47.5472 53.1998 47.822 53.7968 48.3729C54.3944 48.9232 54.694 49.7074 54.694 50.7236C54.694 51.2295 54.617 51.681 54.4628 52.0777C54.3197 52.4587 54.0902 52.8015 53.7921 53.0796C53.4841 53.3591 53.1197 53.57 52.7233 53.698C52.3036 53.8389 51.8191 53.9099 51.2696 53.9099H49.5029ZM58.4269 54C58.173 54 57.9133 53.9827 57.6473 53.9457C57.3939 53.9128 57.1438 53.8587 56.8995 53.784C56.68 53.7173 56.4687 53.6263 56.2695 53.5126C56.1315 53.4405 56.0347 53.3458 55.9797 53.2285C55.9263 53.1108 55.9078 52.9924 55.9263 52.8717C55.9428 52.7558 55.9878 52.6456 56.0573 52.5512C56.1269 52.4582 56.2284 52.3941 56.3425 52.3711C56.4637 52.3439 56.5935 52.3664 56.7326 52.4386C56.9865 52.5714 57.2589 52.6702 57.5522 52.7366C57.8389 52.8022 58.1321 52.8355 58.4263 52.8359C58.861 52.8359 59.1758 52.7695 59.3688 52.6373C59.5618 52.505 59.6586 52.337 59.6586 52.132C59.6586 51.9513 59.5908 51.8115 59.4546 51.7122C59.3189 51.6129 59.0848 51.5303 58.7526 51.4639L57.7284 51.2474C57.1488 51.1209 56.7199 50.9125 56.4422 50.6197C56.1651 50.3287 56.0249 49.9447 56.0249 49.4694C56.0249 49.1692 56.0881 48.8932 56.2115 48.6437C56.3356 48.3943 56.5106 48.18 56.7372 48.0028C56.9815 47.8163 57.2596 47.6784 57.5563 47.5968C57.9013 47.4999 58.2585 47.4527 58.617 47.4565C58.9485 47.4565 59.2778 47.4958 59.6041 47.5743C59.911 47.6446 60.2045 47.7635 60.4735 47.9265C60.5883 47.9981 60.6689 48.0888 60.7141 48.1968C60.7593 48.3053 60.7744 48.4179 60.7593 48.5352C60.747 48.6463 60.6995 48.7507 60.6237 48.8331C60.5476 48.9143 60.4478 48.9696 60.3385 48.9913C60.2237 49.015 60.0846 48.9879 59.9212 48.9105C59.7232 48.8062 59.5109 48.7315 59.2911 48.6888C59.063 48.6435 58.831 48.6209 58.5984 48.6212C58.3451 48.6212 58.1289 48.6541 57.951 48.7199C57.773 48.7864 57.638 48.8782 57.5476 48.9954C57.4561 49.1161 57.4083 49.264 57.4119 49.4152C57.4119 49.5838 57.4734 49.7218 57.5974 49.8309C57.7209 49.9389 57.94 50.0261 58.2541 50.0919L59.2685 50.3085C59.8667 50.4355 60.3118 50.6382 60.6051 50.9182C60.8984 51.1977 61.0445 51.5661 61.0445 52.0234C61.0445 52.3243 60.9807 52.5968 60.8544 52.8405C60.7269 53.0851 60.5456 53.2979 60.324 53.463C60.0979 53.6345 59.8255 53.7667 59.509 53.8603C59.1914 53.9532 58.8314 54 58.4269 54ZM65.9001 53.9821C65.6763 53.9821 65.5042 53.9203 65.383 53.7973C65.2625 53.6738 65.2022 53.4982 65.2022 53.269V48.1881C65.2022 47.9531 65.2625 47.7758 65.383 47.6551C65.5042 47.535 65.6763 47.475 65.9001 47.475C66.1296 47.475 66.3041 47.535 66.4252 47.6551C66.5458 47.7764 66.6066 47.9531 66.6066 48.1881V53.2696C66.6066 53.4982 66.5475 53.6738 66.4298 53.7973C66.3122 53.9203 66.1354 53.9821 65.9001 53.9821ZM70.4751 53.9821C70.2519 53.9821 70.0798 53.9203 69.9586 53.7973C69.8381 53.6738 69.7778 53.4982 69.7778 53.269V48.702H68.1832C67.9902 48.702 67.8412 48.6512 67.7392 48.549C67.6372 48.4468 67.5856 48.3024 67.5856 48.1159C67.5856 47.9352 67.6372 47.7955 67.7392 47.6961C67.8418 47.5968 67.9902 47.5472 68.1832 47.5472H72.7855C72.9727 47.5472 73.1182 47.5968 73.2202 47.6961C73.3228 47.7955 73.3744 47.9352 73.3744 48.1159C73.3744 48.3024 73.3222 48.4468 73.2202 48.549C73.1182 48.6512 72.9727 48.702 72.7855 48.702H71.1822V53.2696C71.1822 53.4982 71.1231 53.6738 71.0055 53.7973C70.8878 53.9203 70.7104 53.9821 70.4751 53.9821ZM79.5173 54C79.2629 54 79.0032 53.9827 78.7372 53.9457C78.484 53.9127 78.2341 53.8586 77.99 53.784C77.7705 53.7173 77.5591 53.6263 77.3599 53.5126C77.2214 53.4405 77.1246 53.3458 77.0701 53.2285C77.0162 53.1108 76.9977 52.9924 77.0162 52.8717C77.0327 52.7558 77.0777 52.6456 77.1472 52.5512C77.2168 52.4582 77.3183 52.3941 77.4324 52.3711C77.5541 52.3439 77.6834 52.3664 77.8225 52.4386C78.0764 52.5714 78.3488 52.6702 78.6421 52.7366C78.9292 52.8022 79.2228 52.8356 79.5173 52.8359C79.9521 52.8359 80.2656 52.7695 80.4587 52.6373C80.6517 52.505 80.7485 52.337 80.7485 52.132C80.7485 51.9513 80.6807 51.8115 80.5445 51.7122C80.4088 51.6129 80.1747 51.5303 79.8431 51.4639L78.8189 51.2474C78.2393 51.1209 77.8103 50.9125 77.5327 50.6197C77.255 50.3287 77.1153 49.9447 77.1153 49.4694C77.1153 49.1692 77.178 48.8932 77.3014 48.6437C77.4255 48.3943 77.6005 48.18 77.8271 48.0028C78.0716 47.8162 78.3499 47.6784 78.6467 47.5968C78.9918 47.4999 79.349 47.4527 79.7075 47.4565C80.0384 47.4565 80.3682 47.4958 80.694 47.5743C81.0011 47.6445 81.2948 47.7634 81.564 47.9265C81.6782 47.9981 81.7588 48.0888 81.804 48.1968C81.8492 48.3053 81.8643 48.4179 81.8492 48.5352C81.8369 48.6463 81.7894 48.7507 81.7136 48.8331C81.6375 48.9143 81.5377 48.9696 81.4284 48.9913C81.3136 49.015 81.1745 48.9879 81.0111 48.9105C80.8133 48.8063 80.6012 48.7316 80.3816 48.6888C80.1535 48.6435 79.9215 48.6209 79.6889 48.6212C79.435 48.6212 79.2194 48.6541 79.0409 48.7199C78.8629 48.7864 78.7285 48.8782 78.6375 48.9954C78.546 49.1161 78.4982 49.264 78.5018 49.4152C78.5018 49.5838 78.5633 49.7218 78.6873 49.8309C78.8114 49.9389 79.0305 50.0261 79.3446 50.0919L80.359 50.3085C80.9566 50.4355 81.4023 50.6382 81.6956 50.9182C81.9883 51.1977 82.135 51.5661 82.135 52.0234C82.135 52.3243 82.0712 52.5968 81.9443 52.8405C81.817 53.0851 81.6359 53.2979 81.4145 53.463C81.1884 53.6345 80.916 53.7667 80.5989 53.8603C80.2819 53.9532 79.9208 54 79.5168 54M86.3657 52.818C86.7216 52.818 87.0259 52.7337 87.2757 52.5656C87.5267 52.397 87.7203 52.1563 87.8554 51.8433C87.9921 51.5303 88.06 51.1573 88.06 50.7242C88.06 50.0625 87.9104 49.5491 87.6113 49.1854C87.3128 48.8216 86.8972 48.6391 86.3651 48.6391C86.0156 48.6391 85.7136 48.7205 85.4597 48.8828C85.2058 49.0456 85.0128 49.2812 84.8801 49.5913C84.7468 49.9014 84.6807 50.279 84.6807 50.7242C84.6807 51.3802 84.8303 51.8929 85.1288 52.2631C85.4279 52.6332 85.8406 52.818 86.3657 52.818ZM86.3657 54C85.7438 54 85.1925 53.8649 84.712 53.5941C84.2374 53.3285 83.8514 52.9299 83.602 52.4479C83.3429 51.9547 83.2131 51.3802 83.2131 50.7242C83.2131 50.2311 83.2867 49.7824 83.4345 49.3794C83.5725 48.9928 83.7903 48.6393 84.0738 48.3417C84.3541 48.0508 84.6959 47.8255 85.0743 47.6823C85.4638 47.5321 85.895 47.4571 86.3657 47.4571C86.9998 47.4571 87.5539 47.5911 88.0281 47.8584C88.4991 48.1232 88.8831 48.5183 89.1334 48.996C89.3966 49.4862 89.5276 50.0596 89.5276 50.715C89.5276 51.2145 89.4534 51.666 89.3056 52.0691C89.1663 52.4573 88.9471 52.8123 88.6622 53.1113C88.3814 53.4029 88.0396 53.6294 87.6612 53.7748C87.2746 53.9249 86.8427 54 86.3657 54ZM91.6838 53.9099C91.4595 53.9099 91.2856 53.847 91.1621 53.7205C91.0387 53.5941 90.9767 53.4203 90.9767 53.1968V48.2424C90.9767 48.0074 91.0369 47.8301 91.1575 47.7094C91.2792 47.5893 91.4508 47.5293 91.674 47.5293C91.9035 47.5293 92.0785 47.5893 92.1997 47.7094C92.3203 47.8307 92.3805 48.0074 92.3805 48.2424V52.7279H94.8092C95.0022 52.7279 95.1494 52.7787 95.2526 52.8809C95.3552 52.9837 95.4068 53.1281 95.4068 53.314C95.4068 53.5069 95.3552 53.6547 95.2526 53.7563C95.1494 53.8591 95.0022 53.9099 94.8086 53.9099H91.6838ZM99.0393 54C98.5872 54 98.1867 53.9428 97.8395 53.8285C97.5114 53.7258 97.2121 53.5481 96.9654 53.3094C96.7233 53.0676 96.5417 52.7725 96.4351 52.4479C96.3174 52.1049 96.2583 51.7076 96.2583 51.2566V48.1789C96.2583 47.9439 96.3191 47.7689 96.4397 47.6505C96.5608 47.5333 96.733 47.475 96.9556 47.475C97.1857 47.475 97.3607 47.5333 97.4819 47.6505C97.6024 47.7683 97.6627 47.9439 97.6627 48.1789V51.2566C97.6627 51.774 97.7804 52.1632 98.0157 52.4248C98.2516 52.6869 98.593 52.818 99.0399 52.818C99.4804 52.818 99.8189 52.6869 100.054 52.4253C100.29 52.1632 100.408 51.774 100.408 51.2566V48.1789C100.408 47.9439 100.468 47.7689 100.589 47.6505C100.71 47.5333 100.885 47.475 101.114 47.475C101.325 47.475 101.491 47.5333 101.612 47.6505C101.733 47.7683 101.794 47.9439 101.794 48.1789V51.2566C101.794 51.8583 101.689 52.3635 101.481 52.7729C101.282 53.1721 100.958 53.4955 100.557 53.6934C100.149 53.8978 99.6439 54 99.0399 54M105.617 53.9821C105.393 53.9821 105.221 53.9203 105.1 53.7973C104.98 53.6738 104.92 53.4982 104.92 53.269V48.702H103.325C103.132 48.702 102.983 48.6512 102.881 48.549C102.779 48.4468 102.728 48.3024 102.728 48.1159C102.728 47.9352 102.779 47.7955 102.881 47.6961C102.983 47.5968 103.132 47.5472 103.325 47.5472H107.927C108.114 47.5472 108.26 47.5968 108.362 47.6961C108.465 47.7955 108.516 47.9352 108.516 48.1159C108.516 48.3024 108.464 48.4468 108.362 48.549C108.26 48.6512 108.114 48.702 107.927 48.702H106.324V53.2696C106.324 53.4982 106.264 53.6738 106.147 53.7973C106.03 53.9203 105.853 53.9821 105.618 53.9821M110.183 53.9821C109.959 53.9821 109.787 53.9203 109.666 53.7973C109.545 53.6738 109.485 53.4982 109.485 53.269V48.1881C109.485 47.9531 109.545 47.7758 109.666 47.6551C109.787 47.535 109.959 47.475 110.183 47.475C110.413 47.475 110.587 47.535 110.708 47.6551C110.828 47.7764 110.89 47.9531 110.89 48.1881V53.2696C110.89 53.4982 110.831 53.6738 110.713 53.7973C110.595 53.9203 110.419 53.9821 110.183 53.9821ZM115.501 52.818C115.857 52.818 116.162 52.7337 116.411 52.5656C116.662 52.397 116.855 52.1563 116.991 51.8433C117.127 51.5303 117.195 51.1573 117.195 50.7242C117.195 50.0625 117.046 49.5491 116.747 49.1854C116.448 48.8216 116.032 48.6391 115.501 48.6391C115.151 48.6391 114.849 48.7205 114.595 48.8828C114.341 49.0456 114.149 49.2812 114.015 49.5913C113.882 49.9014 113.816 50.279 113.816 50.7242C113.816 51.3802 113.965 51.8929 114.264 52.2631C114.563 52.6332 114.976 52.818 115.501 52.818ZM115.501 54C114.879 54 114.328 53.8649 113.847 53.5941C113.373 53.3285 112.987 52.9299 112.737 52.4479C112.478 51.9547 112.349 51.3802 112.349 50.7242C112.349 50.2311 112.422 49.7824 112.57 49.3794C112.708 48.9928 112.925 48.6393 113.209 48.3417C113.489 48.0508 113.831 47.8255 114.209 47.6823C114.599 47.5321 115.03 47.4571 115.501 47.4571C116.135 47.4571 116.689 47.5911 117.163 47.8584C117.634 48.1232 118.018 48.5183 118.269 48.996C118.532 49.4862 118.663 50.0596 118.663 50.715C118.663 51.2145 118.589 51.666 118.441 52.0691C118.301 52.4573 118.082 52.8123 117.797 53.1113C117.517 53.4029 117.175 53.6294 116.796 53.7748C116.41 53.9249 115.978 54 115.501 54ZM120.765 53.9821C120.553 53.9821 120.391 53.9267 120.279 53.8152C120.168 53.7038 120.112 53.5398 120.112 53.3232V48.1702C120.112 47.9415 120.168 47.7683 120.28 47.6511C120.391 47.5339 120.541 47.475 120.729 47.475C120.891 47.475 121.017 47.505 121.104 47.5651C121.191 47.6257 121.293 47.725 121.407 47.863L124.588 51.9062H124.334V48.1246C124.334 47.9202 124.392 47.7608 124.506 47.6465C124.62 47.5322 124.787 47.475 125.005 47.475C125.21 47.475 125.368 47.5327 125.48 47.6465C125.592 47.7608 125.648 47.9202 125.648 48.1246V53.3412C125.648 53.5398 125.596 53.6963 125.493 53.8106C125.391 53.9249 125.251 53.9821 125.076 53.9821C124.907 53.9821 124.773 53.9503 124.674 53.8874C124.55 53.8026 124.439 53.701 124.343 53.5854L121.173 49.5416H121.417V53.3238C121.417 53.5398 121.36 53.7038 121.249 53.8152C121.137 53.9267 120.975 53.9827 120.765 53.9827M129.58 54C129.326 54 129.066 53.9827 128.8 53.9457C128.547 53.9127 128.297 53.8586 128.053 53.784C127.833 53.7173 127.622 53.6263 127.423 53.5126C127.284 53.4405 127.187 53.3458 127.133 53.2285C127.08 53.1176 127.061 52.9933 127.079 52.8717C127.095 52.7558 127.14 52.6456 127.21 52.5512C127.28 52.4582 127.381 52.3941 127.495 52.3711C127.617 52.3439 127.746 52.3664 127.885 52.4386C128.139 52.5714 128.412 52.6702 128.705 52.7366C128.992 52.8022 129.286 52.8356 129.58 52.8359C130.015 52.8359 130.328 52.7695 130.521 52.6373C130.714 52.505 130.811 52.337 130.811 52.132C130.811 51.9513 130.743 51.8115 130.607 51.7122C130.472 51.6129 130.237 51.5303 129.906 51.4639L128.882 51.2474C128.302 51.1209 127.873 50.9125 127.595 50.6197C127.318 50.3287 127.178 49.9447 127.178 49.4694C127.178 49.1692 127.241 48.8932 127.364 48.6437C127.488 48.3943 127.663 48.18 127.89 48.0028C128.134 47.8162 128.413 47.6784 128.71 47.5968C129.055 47.4999 129.412 47.4527 129.77 47.4565C130.101 47.4565 130.431 47.4958 130.757 47.5743C131.064 47.6445 131.358 47.7634 131.627 47.9265C131.741 47.9981 131.822 48.0888 131.867 48.1968C131.912 48.3053 131.927 48.4179 131.912 48.5352C131.9 48.6463 131.852 48.7507 131.776 48.8331C131.7 48.9143 131.6 48.9696 131.491 48.9913C131.376 49.015 131.237 48.9879 131.074 48.9105C130.876 48.8063 130.664 48.7316 130.444 48.6888C130.216 48.6435 129.984 48.6209 129.752 48.6212C129.498 48.6212 129.282 48.6541 129.104 48.7199C128.926 48.7864 128.791 48.8782 128.7 48.9954C128.609 49.1161 128.561 49.264 128.565 49.4152C128.565 49.5838 128.626 49.7218 128.75 49.8309C128.874 49.9389 129.093 50.0261 129.407 50.0919L130.422 50.3085C131.019 50.4355 131.465 50.6382 131.758 50.9182C132.051 51.1977 132.198 51.5661 132.198 52.0234C132.198 52.3243 132.134 52.5968 132.007 52.8405C131.88 53.0851 131.699 53.2979 131.477 53.463C131.251 53.6345 130.979 53.7667 130.662 53.8603C130.345 53.9532 129.984 54 129.58 54M4.79529 35.7848C5.21727 35.7848 5.54186 36.021 5.54186 36.4061V36.4235C5.54186 36.8086 5.21727 37.0534 4.79529 37.0534C4.37332 37.0534 4.04873 36.8086 4.04873 36.4235V36.4061C4.04873 36.021 4.37332 35.7848 4.79529 35.7848ZM3.04713 35.7848C3.4691 35.7848 3.79369 36.021 3.79369 36.4061V36.4235C3.79369 36.8086 3.4691 37.0534 3.04713 37.0534C2.62631 37.0534 2.30056 36.8086 2.30056 36.4235V36.4061C2.30056 36.021 2.62631 35.7848 3.04713 35.7848ZM0.755261 40.9996C0.263733 40.4747 0 39.7131 0 38.8036V38.7684C0 38.4098 0.307205 38.1038 0.667736 38.1038C1.02769 38.1038 1.3262 38.4098 1.3262 38.7684V38.8036C1.3262 39.3897 1.46647 39.8269 1.75628 40.1248C2.05479 40.4309 2.45938 40.5706 3.07379 40.5706H5.41028C5.80501 40.5706 6.04208 40.5007 6.2351 40.3079C6.42058 40.1248 6.50753 39.8707 6.50753 39.4509V38.3307C6.50753 37.9721 6.80662 37.6661 7.16657 37.6661C7.52652 37.6661 7.83372 37.9721 7.83372 38.3307V39.4509C7.83372 40.2559 7.57057 40.9384 7.06107 41.3409C6.63099 41.6816 6.06005 41.8658 5.41028 41.8658H3.07437C2.09015 41.8658 1.28157 41.5684 0.755261 40.9996ZM11.1823 40.5706V41.8658C9.68043 41.8658 8.76693 40.9557 8.76693 39.4509V36.1082C8.76693 35.7496 9.06602 35.4435 9.42597 35.4435C9.78534 35.4435 10.0925 35.7496 10.0925 36.1082V39.4509C10.0925 40.238 10.5939 40.5706 11.1823 40.5706Z" fill="#08296C"/>
<path d="M15.4345 39.5647C15.4345 38.8995 15.0212 38.3838 14.3807 38.3838C13.8793 38.3838 13.6156 38.7245 13.3965 39.3897C13.2823 39.7396 13.2649 39.9671 13.1861 40.2558C13.5373 40.5272 13.9494 40.6583 14.3187 40.6583C14.925 40.6583 15.4345 40.2905 15.4345 39.5647ZM16.7601 39.5647C16.7601 41.0602 15.6976 41.8657 14.521 41.8657C13.906 41.8657 13.2649 41.6463 12.7293 41.2005C12.3781 41.6296 11.8332 41.8657 11.1834 41.8657C10.7881 41.8657 10.4809 41.577 10.4809 41.2005C10.4809 40.8246 10.7615 40.5706 11.1834 40.5706C11.9126 40.5706 11.85 40.0722 12.1051 39.1616C12.4656 37.8497 13.2469 37.0626 14.3807 37.0626C15.7504 37.0626 16.7601 38.1736 16.7601 39.5647ZM21.1438 40.5706V39.8095C21.1438 38.926 20.7137 38.4098 20.0721 38.4098C19.3696 38.4098 18.9748 38.952 18.9748 39.4948C18.9748 40.0283 19.3696 40.5706 20.0901 40.5706H21.1438ZM23.3395 41.8657H22.3298C22.0307 43.3526 21.1531 44.0352 19.642 44.0352C19.5017 44.0352 19.3609 44.0178 19.2293 44.0092C18.8607 43.9832 18.5963 43.7205 18.5963 43.3705C18.5963 43.0206 18.8862 42.7319 19.238 42.7319C19.3783 42.7319 19.5017 42.7406 19.598 42.7406C20.3886 42.7406 20.81 42.5217 21.0036 41.8657H20.0721C18.5001 41.8657 17.6921 40.693 17.6921 39.5121C17.6921 38.3047 18.5355 37.0886 20.0901 37.0886C21.4777 37.0886 22.4526 38.3659 22.4526 39.8361V40.5706H23.3395V41.8657Z" fill="#08296C"/>
<path d="M27.1181 40.5705V41.8657C26.1611 41.8657 25.5548 41.603 25.2297 41.0954C24.817 41.5856 24.1666 41.8657 23.3412 41.8657C22.9372 41.8657 22.6387 41.5943 22.6387 41.2184C22.6387 40.8419 22.9372 40.5705 23.3412 40.5705C23.9382 40.5705 24.439 40.2379 24.439 39.4509V36.1081C24.439 35.7495 24.7381 35.4435 25.0981 35.4435C25.4575 35.4435 25.7647 35.7495 25.7647 36.1081V39.4509C25.7647 39.8008 25.8707 40.0635 26.0464 40.2466C26.2747 40.4741 26.6434 40.5705 27.1181 40.5705Z" fill="#08296C"/>
<path d="M31.5888 39.2494C31.5453 38.8729 31.0092 38.3833 30.2806 38.3833C29.5514 38.3833 29.0158 38.8729 28.9718 39.2494L30.2806 40.5879L31.5888 39.2494ZM33.4419 40.5706V41.8652H31.1755C30.702 41.8652 30.4388 41.5153 30.2806 41.2358C30.1223 41.5153 29.8592 41.8652 29.3845 41.8652H27.1181C26.7234 41.8652 26.4162 41.5765 26.4162 41.2012C26.4162 40.8241 26.6973 40.5706 27.1187 40.5706H28.5852L27.9006 39.8881C27.7337 39.7218 27.6543 39.5208 27.6543 39.276C27.6543 38.1731 28.7961 37.0621 30.28 37.0621C31.7731 37.0621 32.915 38.1731 32.915 39.2754C32.915 39.5122 32.8275 39.7218 32.66 39.8881L31.9754 40.5706H33.4419Z" fill="#08296C"/>
<path d="M37.6946 39.5647C37.6946 38.8995 37.2814 38.3838 36.6409 38.3838C36.1395 38.3838 35.8758 38.7245 35.6567 39.3897C35.5425 39.7396 35.5251 39.9671 35.4463 40.2558C35.7975 40.5272 36.2096 40.6583 36.5789 40.6583C37.1851 40.6583 37.6946 40.2905 37.6946 39.5647ZM40.3638 40.5706V41.8657C39.4161 41.8657 38.8272 41.6117 38.4934 41.122C38.072 41.6117 37.4483 41.8657 36.7811 41.8657C36.1662 41.8657 35.5251 41.6463 34.9895 41.2005C34.6382 41.6296 34.0934 41.8657 33.4436 41.8657C33.0483 41.8657 32.7411 41.577 32.7411 41.2005C32.7411 40.8246 33.0217 40.5706 33.4436 40.5706C34.1728 40.5706 34.1102 40.0722 34.3652 39.1616C34.7258 37.8497 35.5071 37.0626 36.6409 37.0626C38.0105 37.0626 39.0203 38.1736 39.0203 39.5647V39.6085C39.0469 39.8794 39.1437 40.0895 39.2927 40.2472C39.5211 40.4747 39.8897 40.5706 40.3638 40.5706Z" fill="#08296C"/>
<path d="M41.464 36.1087C41.464 35.7501 41.7631 35.444 42.123 35.444C42.4824 35.444 42.7896 35.7501 42.7896 36.1081V39.4509C42.7896 40.9464 41.868 41.8651 40.3661 41.8651C39.9621 41.8651 39.6642 41.5937 39.6642 41.2184C39.6642 40.8419 39.9622 40.5711 40.3656 40.5711C40.9638 40.5711 41.464 40.2379 41.464 39.4509V36.1087ZM43.7216 41.2005V36.1081C43.7216 35.7501 44.0207 35.444 44.3807 35.444C44.7406 35.444 45.0478 35.7501 45.0478 36.1081V41.2011C45.0449 41.3763 44.9737 41.5434 44.8493 41.6673C44.7249 41.7912 44.5571 41.8622 44.3813 41.8651C44.0207 41.8651 43.7216 41.5591 43.7216 41.2011M50.6343 35.5312V35.5139C50.6343 35.1288 50.9601 34.8926 51.3809 34.8926C51.8029 34.8926 52.1275 35.1288 52.1275 35.5139V35.5312C52.1275 35.9164 51.8029 36.1606 51.3809 36.1606C50.9601 36.1606 50.6343 35.9164 50.6343 35.5312ZM51.1966 38.9173V38.322C51.0251 38.295 50.8519 38.2805 50.6784 38.2787C49.7568 38.2787 49.045 38.7504 49.045 39.556C49.045 40.1247 49.4664 40.4135 50.0193 40.4135C50.7224 40.4135 51.1966 39.8533 51.1966 38.9173ZM48.8867 35.5312V35.5139C48.8867 35.1288 49.2119 34.8926 49.6333 34.8926C50.0547 34.8926 50.381 35.1288 50.381 35.5139V35.5312C50.381 35.9164 50.0547 36.1606 49.6333 36.1606C49.2119 36.1606 48.8867 35.9164 48.8867 35.5312ZM53.6119 40.5711V41.8657C52.5315 41.8657 51.7582 41.402 51.4076 40.5798C51.0911 41.3235 50.5115 41.6907 49.6687 41.6907C48.6584 41.6907 47.7362 40.8419 47.7362 39.5733C47.7362 38.0159 48.9748 37.036 50.6256 37.036C50.8285 37.036 51.0383 37.0534 51.2499 37.0799C51.3461 36.8351 51.5745 36.6688 51.855 36.6688C52.2329 36.6688 52.5228 36.9748 52.5228 37.3686V39.4509C52.5228 40.2379 53.0137 40.5711 53.6119 40.5711Z" fill="#08296C"/>
<path d="M56.9859 43.2654V43.2827C56.9859 43.6679 56.6613 43.9127 56.2393 43.9127C55.8174 43.9127 55.4928 43.6679 55.4928 43.2827V43.2654C55.4928 42.8803 55.8174 42.6441 56.2393 42.6441C56.6607 42.6441 56.9859 42.8803 56.9859 43.2654ZM55.2377 43.2654V43.2827C55.2377 43.6679 54.9131 43.9127 54.4918 43.9127C54.0704 43.9127 53.7452 43.6679 53.7452 43.2827V43.2654C53.7452 42.8803 54.0704 42.6441 54.4918 42.6441C54.9131 42.6441 55.2377 42.8803 55.2377 43.2654ZM57.3899 40.5705V41.8657C56.4335 41.8657 55.8266 41.603 55.5015 41.0954C55.0899 41.5857 54.4384 41.8657 53.6136 41.8657C53.2183 41.8657 52.9111 41.577 52.9111 41.2005C52.9111 40.824 53.1916 40.5705 53.6136 40.5705C54.2106 40.5705 54.7109 40.2379 54.7109 39.4509V38.3307C54.7109 37.9721 55.0099 37.666 55.3699 37.666C55.7298 37.666 56.0371 37.9721 56.0371 38.3307V39.4509C56.0371 39.8008 56.1425 40.0635 56.3187 40.2466C56.5465 40.4747 56.9158 40.5705 57.3899 40.5705Z" fill="#08296C"/>
<path d="M58.3747 36.2484V36.2311C58.3747 35.8459 58.6993 35.6098 59.1213 35.6098C59.5427 35.6098 59.8673 35.8465 59.8673 36.2311V36.2484C59.8673 36.6336 59.5427 36.8784 59.1213 36.8784C58.6999 36.8784 58.3747 36.633 58.3747 36.2484ZM61.1674 40.5705V41.8657C60.2104 41.8657 59.6041 41.603 59.2795 41.0954C58.8668 41.5862 58.2165 41.8657 57.3911 41.8657C56.9958 41.8657 56.6886 41.577 56.6886 41.2005C56.6886 40.824 56.9691 40.5711 57.3911 40.5711C57.9881 40.5711 58.4883 40.2379 58.4883 39.4509V38.3306C58.4883 37.9726 58.7874 37.6666 59.1474 37.6666C59.5067 37.6666 59.8139 37.9726 59.8139 38.3306V39.4509C59.8139 39.8008 59.9206 40.063 60.0962 40.2466C60.324 40.4741 60.6932 40.5705 61.1674 40.5705Z" fill="#08296C"/>
<path d="M64.2244 35.8287V35.8113C64.2244 35.4262 64.5501 35.19 64.9709 35.19C65.3929 35.19 65.7175 35.4262 65.7175 35.8113V35.8287C65.7175 36.2138 65.3929 36.4581 64.9709 36.4581C64.5501 36.4581 64.2244 36.2138 64.2244 35.8287ZM62.8987 39.4861C62.8987 40.0284 63.2674 40.5706 64.0058 40.5706C64.7338 40.5706 65.0851 40.0462 65.0851 39.5121C65.0851 38.952 64.7083 38.3838 63.9879 38.3838C63.2761 38.3838 62.8987 38.9347 62.8987 39.4861ZM62.4768 35.8287V35.8113C62.4768 35.4262 62.8019 35.19 63.2233 35.19C63.6447 35.19 63.9699 35.4262 63.9699 35.8113V35.8287C63.9699 36.2138 63.6453 36.4581 63.2233 36.4581C62.8019 36.4581 62.4768 36.2138 62.4768 35.8287ZM67.0616 40.5706V41.8657H61.1685C60.7558 41.8657 60.466 41.603 60.466 41.2271C60.466 40.8333 60.7466 40.5706 61.1685 40.5706H61.8183C61.667 40.232 61.5892 39.8654 61.5899 39.4948C61.5899 38.2787 62.4072 37.0626 64.0052 37.0626C65.6033 37.0626 66.4026 38.2608 66.4026 39.4682C66.4026 39.8447 66.3238 40.2299 66.1655 40.5706H67.0616Z" fill="#08296C"/>
<path d="M68.9507 36.2484V36.2311C68.9507 35.8459 69.2764 35.6098 69.6978 35.6098C70.1192 35.6098 70.4444 35.8465 70.4444 36.2311V36.2484C70.4444 36.6336 70.1192 36.8784 69.6978 36.8784C69.2764 36.8784 68.9513 36.6336 68.9513 36.249M67.2031 36.249V36.2317C67.2031 35.8459 67.5277 35.6098 67.9497 35.6098C68.3716 35.6098 68.6968 35.8465 68.6968 36.2311V36.2484C68.6968 36.6336 68.3716 36.8784 67.9491 36.8784C67.5283 36.8784 67.2031 36.6336 67.2031 36.249ZM70.8397 40.5705V41.8657C69.8822 41.8657 69.2764 41.603 68.9513 41.0954C68.5386 41.5862 67.8882 41.8657 67.0628 41.8657C66.6681 41.8657 66.3603 41.577 66.3603 41.2005C66.3603 40.824 66.6414 40.5711 67.0628 40.5711C67.6598 40.5711 68.1607 40.2379 68.1607 39.4509V38.3306C68.1607 37.9726 68.4592 37.6666 68.8191 37.6666C69.1796 37.6666 69.4868 37.9726 69.4868 38.3306V39.4509C69.4868 39.8008 69.5912 40.063 69.768 40.2466C69.9963 40.4741 70.365 40.5705 70.8397 40.5705Z" fill="#08296C"/>
<path d="M71.9381 36.1087C71.9381 35.7501 72.2372 35.4441 72.5972 35.4441C72.9571 35.4441 73.2643 35.7501 73.2643 36.1081V39.4509C73.2643 40.9465 72.3421 41.8652 70.8403 41.8652C70.4363 41.8652 70.1384 41.5938 70.1384 41.2184C70.1384 40.842 70.4363 40.5711 70.8403 40.5711C71.4379 40.5711 71.9381 40.238 71.9381 39.4509V36.1087ZM81.4684 43.2741V43.2914C81.4684 43.6766 81.1438 43.9214 80.7219 43.9214C80.3005 43.9214 79.9753 43.6766 79.9753 43.292V43.2747C79.9753 42.889 80.3005 42.6528 80.7219 42.6528C81.1433 42.6528 81.4684 42.8895 81.4684 43.2741ZM82.408 40.5706V41.8657H78.79C77.815 41.8657 77.4551 42.1891 77.4551 42.7227C77.4551 43.2568 77.8237 43.5888 78.79 43.5888H78.7986C79.2027 43.5888 79.5012 43.8602 79.5012 44.2275C79.5012 44.5953 79.2027 44.8753 78.8073 44.8753H78.79C77.0945 44.8753 76.1294 44.0964 76.1294 42.7227C76.1294 41.3495 77.0945 40.5706 78.79 40.5706H80.3005C80.2918 40.5186 80.2738 40.4568 80.2657 40.3869C80.1161 39.5733 79.8698 39.0918 79.4751 38.8209C79.0531 38.5322 78.5175 38.4011 77.8938 38.4011C77.7362 38.4011 77.5866 38.4185 77.4197 38.4185C76.9456 38.4185 76.6992 38.0859 76.6992 37.7533C76.6992 37.4559 76.9021 37.1672 77.3142 37.1146C77.5652 37.0873 77.8175 37.0726 78.0701 37.0707C78.8427 37.0707 79.5719 37.2284 80.239 37.6661C80.9502 38.1384 81.3635 38.9433 81.5826 40.1768C81.6087 40.3078 81.6974 40.5706 82.022 40.5706H82.408Z" fill="#08296C"/>
<path d="M85.7826 43.2654V43.2827C85.7826 43.6679 85.4574 43.9127 85.036 43.9127C84.6141 43.9127 84.2895 43.6679 84.2895 43.2827V43.2654C84.2895 42.8803 84.6141 42.6441 85.036 42.6441C85.4574 42.6441 85.7826 42.8803 85.7826 43.2654ZM84.0344 43.2654V43.2827C84.0344 43.6679 83.7098 43.9127 83.2885 43.9127C82.8671 43.9127 82.5419 43.6679 82.5419 43.2827V43.2654C82.5419 42.8803 82.8665 42.6441 83.2885 42.6441C83.7098 42.6441 84.0344 42.8803 84.0344 43.2654ZM86.1866 40.5705V41.8657C85.2296 41.8657 84.6233 41.603 84.2982 41.0954C83.886 41.5857 83.2351 41.8657 82.4103 41.8657C82.015 41.8657 81.7078 41.577 81.7078 41.2005C81.7078 40.824 81.9883 40.5705 82.4103 40.5705C83.0073 40.5705 83.5076 40.2379 83.5076 39.4509V38.3307C83.5076 37.9721 83.8066 37.666 84.1666 37.666C84.526 37.666 84.8332 37.9721 84.8332 38.3307V39.4509C84.8332 39.8008 84.9398 40.0635 85.1154 40.2466C85.3432 40.4747 85.7125 40.5705 86.1866 40.5705Z" fill="#08296C"/>
<path d="M89.9641 40.5705V41.8657C89.0071 41.8657 88.4008 41.603 88.0756 41.0954C87.6629 41.5856 87.0126 41.8657 86.1872 41.8657C85.7832 41.8657 85.4847 41.5943 85.4847 41.2184C85.4847 40.8419 85.7832 40.5705 86.1872 40.5705C86.7842 40.5705 87.285 40.2379 87.285 39.4509V36.1081C87.285 35.7495 87.5841 35.4435 87.9441 35.4435C88.3034 35.4435 88.6106 35.7495 88.6106 36.1081V39.4509C88.6106 39.8008 88.7167 40.0635 88.8923 40.2466C89.1207 40.4741 89.4894 40.5705 89.9641 40.5705Z" fill="#08296C"/>
<path d="M92.1081 35.8287V35.8113C92.1081 35.4262 92.4327 35.19 92.8547 35.19C93.2761 35.19 93.6007 35.4262 93.6007 35.8113V35.8287C93.6007 36.2138 93.2761 36.4581 92.8547 36.4581C92.4333 36.4581 92.1081 36.2138 92.1081 35.8287ZM96.06 40.5706V41.8657H89.9739C89.4824 41.8657 89.236 41.5424 89.236 41.2184C89.236 40.8945 89.4824 40.5706 89.9739 40.5706H93.8557C93.847 40.5186 93.8296 40.4574 93.8203 40.3875C93.6714 39.5733 93.425 39.0923 93.0303 38.8209C92.6083 38.5322 92.0727 38.4011 91.4491 38.4011C91.2914 38.4011 91.1419 38.4185 90.9749 38.4185C90.5008 38.4185 90.255 38.0859 90.255 37.7533C90.255 37.4559 90.4567 37.1672 90.8694 37.1152C91.1245 37.08 91.3882 37.0626 91.634 37.0626C92.4066 37.0626 93.1352 37.2284 93.7943 37.6661C94.506 38.1384 94.8921 38.9526 95.1384 40.1773C95.1639 40.3084 95.2167 40.57 95.5766 40.57L96.06 40.5706Z" fill="#08296C"/>
<path d="M97.1591 36.1087C97.1591 35.7501 97.4582 35.444 97.8181 35.444C98.1775 35.444 98.4847 35.7501 98.4847 36.1081V39.4509C98.4847 40.9464 97.5631 41.8651 96.0612 41.8651C95.6572 41.8651 95.3593 41.5937 95.3593 41.2184C95.3593 40.8419 95.6572 40.5711 96.0607 40.5711C96.6588 40.5711 97.1591 40.2379 97.1591 39.4509V36.1087ZM99.4167 41.2005V36.1081C99.4167 35.7501 99.7158 35.444 100.076 35.444C100.436 35.444 100.743 35.7501 100.743 36.1081V41.2011C100.74 41.3763 100.669 41.5434 100.544 41.6673C100.42 41.7912 100.252 41.8621 100.076 41.8651C99.7158 41.8651 99.4167 41.5591 99.4167 41.2011M108.227 35.7847C108.649 35.7847 108.974 36.0209 108.974 36.406V36.4234C108.974 36.8085 108.649 37.0534 108.227 37.0534C107.805 37.0534 107.481 36.8085 107.481 36.4234V36.406C107.481 36.0209 107.805 35.7847 108.227 35.7847M106.479 35.7847C106.9 35.7847 107.225 36.0209 107.225 36.406V36.4234C107.225 36.8085 106.9 37.0534 106.479 37.0534C106.058 37.0534 105.732 36.8085 105.732 36.4234V36.406C105.732 36.0209 106.058 35.7847 106.479 35.7847ZM104.187 40.9995C103.695 40.4747 103.432 39.713 103.432 38.8036V38.7683C103.432 38.4097 103.739 38.1037 104.099 38.1037C104.459 38.1037 104.757 38.4097 104.757 38.7683V38.8036C104.757 39.3896 104.898 39.8268 105.188 40.1247C105.486 40.4308 105.891 40.5705 106.506 40.5705H108.842C109.237 40.5705 109.473 40.5006 109.666 40.3078C109.852 40.1247 109.939 39.8707 109.939 39.4509V38.3306C109.939 37.972 110.238 37.666 110.598 37.666C110.958 37.666 111.266 37.972 111.266 38.3306V39.4509C111.266 40.2558 111.002 40.9383 110.492 41.3408C110.062 41.6815 109.492 41.8657 108.842 41.8657H106.506C105.522 41.8657 104.714 41.5683 104.187 40.9995ZM117.978 36.1087V39.4509C117.978 40.9464 117.055 41.8651 115.554 41.8651H112.893C112.489 41.8651 112.199 41.5937 112.199 41.2184C112.199 40.8419 112.489 40.5711 112.884 40.5711H114.113L113.051 37.0967C113.033 37.0402 113.024 36.9814 113.025 36.9223C113.025 36.5989 113.305 36.2836 113.683 36.2836C113.973 36.2836 114.227 36.4765 114.324 36.7739L115.484 40.5711H115.553C116.327 40.5711 116.652 40.2379 116.652 39.4509V36.1087C116.652 35.7501 116.951 35.444 117.311 35.444C117.671 35.444 117.978 35.7501 117.978 36.1081M121.326 40.5705V41.8657C119.824 41.8657 118.91 40.9557 118.91 39.4509V36.1081C118.91 35.7495 119.209 35.4435 119.569 35.4435C119.929 35.4435 120.237 35.7495 120.237 36.1081V39.4509C120.237 40.2379 120.737 40.5705 121.326 40.5705Z" fill="#08296C"/>
<path d="M124.962 43.2655V43.2828C124.962 43.668 124.637 43.9128 124.216 43.9128C123.794 43.9128 123.47 43.668 123.47 43.2828V43.2655C123.47 42.8803 123.794 42.6442 124.216 42.6442C124.637 42.6442 124.962 42.8803 124.962 43.2655ZM127.422 40.5706V41.8658H121.335C120.843 41.8658 120.598 41.5418 120.598 41.2185C120.598 40.8945 120.844 40.5706 121.335 40.5706H125.217C125.209 40.5181 125.191 40.4568 125.182 40.387C125.033 39.5734 124.787 39.0918 124.392 38.821C123.97 38.5323 123.434 38.4012 122.811 38.4012C122.653 38.4012 122.503 38.4185 122.337 38.4185C121.861 38.4185 121.617 38.0859 121.617 37.7533C121.617 37.4559 121.818 37.1672 122.231 37.1147C122.486 37.08 122.749 37.0621 122.994 37.0621C123.768 37.0621 124.497 37.2284 125.156 37.6661C125.868 38.1384 126.254 38.952 126.499 40.1768C126.526 40.3079 126.578 40.5706 126.938 40.5706H127.422Z" fill="#08296C"/>
<path d="M131.674 39.5647C131.674 38.8995 131.261 38.3838 130.621 38.3838C130.119 38.3838 129.855 38.7245 129.636 39.3897C129.522 39.7396 129.505 39.9671 129.426 40.2558C129.777 40.5272 130.189 40.6583 130.559 40.6583C131.165 40.6583 131.674 40.2905 131.674 39.5647ZM133 39.5647C133 41.0602 131.938 41.8657 130.761 41.8657C130.146 41.8657 129.505 41.6463 128.969 41.2005C128.618 41.6296 128.073 41.8657 127.423 41.8657C127.028 41.8657 126.721 41.577 126.721 41.2005C126.721 40.8246 127.001 40.5706 127.423 40.5706C128.153 40.5706 128.09 40.0722 128.345 39.1616C128.706 37.8497 129.487 37.0626 130.621 37.0626C131.99 37.0626 133 38.1736 133 39.5647Z" fill="#08296C"/>
</svg>
